<svg width="1618" height="539" viewBox="0 0 1618 539" fill="none" xmlns="http://www.w3.org/2000/svg">
<rect y="0.27002" width="390" height="390" fill="#226037"/>
<rect x="24" y="24.27" width="342" height="342" stroke="white" stroke-width="12"/>
<path d="M100 114.667C140.957 117.521 164.724 123.842 202 141.473V272.042C198.295 270.015 193.677 267.536 188.598 264.922C176.135 258.51 160.434 251.034 148.697 247.595C136.831 244.118 122.975 242.978 112.333 242.667C107.488 242.525 103.225 242.553 100 242.626V114.667Z" stroke="white" stroke-width="12"/>
<path d="M222.63 140.77C249.135 146.77 271.135 137.27 287.347 123.27L287.347 145.79C273.135 159.77 248.135 172.77 222.63 163.131L222.63 140.77Z" fill="white"/>
<path d="M222.63 222.77C249.135 228.77 271.135 219.27 287.347 205.27L287.347 227.79C273.135 241.77 248.135 254.77 222.63 245.131L222.63 222.77Z" fill="white"/>
<path d="M222.63 182.77C249.135 188.77 271.135 179.27 287.347 165.27L287.347 187.79C273.135 201.77 248.135 214.77 222.63 205.131L222.63 182.77Z" fill="white"/>
<path d="M534.91 160.27H497.51V1.7643e-05H534.91V160.27ZM622.37 78.65C632.05 78.65 639.017 76.34 643.27 71.72C647.524 67.1 649.65 60.6467 649.65 52.36C649.65 48.6933 649.1 45.3567 648 42.35C646.9 39.3433 645.214 36.7767 642.94 34.65C640.74 32.45 637.917 30.7633 634.47 29.59C631.097 28.4167 627.064 27.83 622.37 27.83H603.01V78.65H622.37ZM622.37 1.7643e-05C633.664 1.7643e-05 643.344 1.35668 651.41 4.07001C659.55 6.71001 666.224 10.3767 671.43 15.07C676.71 19.7633 680.597 25.3 683.09 31.68C685.584 38.06 686.83 44.9533 686.83 52.36C686.83 60.3533 685.547 67.6867 682.98 74.36C680.414 81.0333 676.49 86.7533 671.21 91.52C665.93 96.2867 659.22 100.027 651.08 102.74C643.014 105.38 633.444 106.7 622.37 106.7H603.01V160.27H565.83V1.7643e-05H622.37ZM743.094 28.6V66H793.474V93.5H743.094V131.67H808.874V160.27H705.694V1.7643e-05H808.874V28.6H743.094ZM971.727 1.7643e-05V160.27H952.367C949.507 160.27 947.087 159.83 945.107 158.95C943.2 157.997 941.294 156.383 939.387 154.11L863.817 58.52C864.11 61.38 864.294 64.1667 864.367 66.88C864.514 69.52 864.587 72.0134 864.587 74.36V160.27H831.807V1.7643e-05H851.387C853 1.7643e-05 854.357 0.07335 855.457 0.220015C856.557 0.36668 857.547 0.660014 858.427 1.10002C859.307 1.46668 860.15 2.01668 860.957 2.75002C861.764 3.48335 862.68 4.47335 863.707 5.72001L939.937 101.97C939.57 98.89 939.314 95.92 939.167 93.06C939.02 90.1267 938.947 87.3767 938.947 84.81V1.7643e-05H971.727Z" fill="white"/>
<path d="M514.55 270.27H501.05V197.97H514.55V270.27ZM539.556 225.27C540.59 224.237 541.673 223.287 542.806 222.42C543.973 221.52 545.19 220.77 546.456 220.17C547.756 219.537 549.14 219.053 550.606 218.72C552.073 218.353 553.673 218.17 555.406 218.17C558.206 218.17 560.69 218.653 562.856 219.62C565.023 220.553 566.823 221.887 568.256 223.62C569.723 225.32 570.823 227.37 571.556 229.77C572.323 232.137 572.706 234.753 572.706 237.62V270.27H560.356V237.62C560.356 234.487 559.64 232.07 558.206 230.37C556.773 228.637 554.59 227.77 551.656 227.77C549.523 227.77 547.523 228.253 545.656 229.22C543.79 230.187 542.023 231.503 540.356 233.17V270.27H528.006V218.97H535.556C537.156 218.97 538.206 219.72 538.706 221.22L539.556 225.27ZM615.752 228.97C615.418 229.503 615.068 229.887 614.702 230.12C614.335 230.32 613.868 230.42 613.302 230.42C612.702 230.42 612.052 230.253 611.352 229.92C610.685 229.587 609.902 229.22 609.002 228.82C608.102 228.387 607.068 228.003 605.902 227.67C604.768 227.337 603.418 227.17 601.852 227.17C599.418 227.17 597.502 227.687 596.102 228.72C594.735 229.753 594.052 231.103 594.052 232.77C594.052 233.87 594.402 234.803 595.102 235.57C595.835 236.303 596.785 236.953 597.952 237.52C599.152 238.087 600.502 238.603 602.002 239.07C603.502 239.503 605.018 239.987 606.552 240.52C608.118 241.053 609.652 241.67 611.152 242.37C612.652 243.037 613.985 243.903 615.152 244.97C616.352 246.003 617.302 247.253 618.002 248.72C618.735 250.187 619.102 251.953 619.102 254.02C619.102 256.487 618.652 258.77 617.752 260.87C616.885 262.937 615.585 264.737 613.852 266.27C612.118 267.77 609.968 268.953 607.402 269.82C604.868 270.653 601.935 271.07 598.602 271.07C596.835 271.07 595.102 270.903 593.402 270.57C591.735 270.27 590.118 269.837 588.552 269.27C587.018 268.703 585.585 268.037 584.252 267.27C582.952 266.503 581.802 265.67 580.802 264.77L583.652 260.07C584.018 259.503 584.452 259.07 584.952 258.77C585.452 258.47 586.085 258.32 586.852 258.32C587.618 258.32 588.335 258.537 589.002 258.97C589.702 259.403 590.502 259.87 591.402 260.37C592.302 260.87 593.352 261.337 594.552 261.77C595.785 262.203 597.335 262.42 599.202 262.42C600.668 262.42 601.918 262.253 602.952 261.92C604.018 261.553 604.885 261.087 605.552 260.52C606.252 259.953 606.752 259.303 607.052 258.57C607.385 257.803 607.552 257.02 607.552 256.22C607.552 255.02 607.185 254.037 606.452 253.27C605.752 252.503 604.802 251.837 603.602 251.27C602.435 250.703 601.085 250.203 599.552 249.77C598.052 249.303 596.502 248.803 594.902 248.27C593.335 247.737 591.785 247.12 590.252 246.42C588.752 245.687 587.402 244.77 586.202 243.67C585.035 242.57 584.085 241.22 583.352 239.62C582.652 238.02 582.302 236.087 582.302 233.82C582.302 231.72 582.718 229.72 583.552 227.82C584.385 225.92 585.602 224.27 587.202 222.87C588.835 221.437 590.852 220.303 593.252 219.47C595.685 218.603 598.485 218.17 601.652 218.17C605.185 218.17 608.402 218.753 611.302 219.92C614.202 221.087 616.618 222.62 618.552 224.52L615.752 228.97ZM680.147 270.27H667.797V228.22H643.997V256.02C643.997 257.62 644.38 258.87 645.147 259.77C645.947 260.67 647.03 261.12 648.397 261.12C649.164 261.12 649.797 261.037 650.297 260.87C650.83 260.67 651.28 260.47 651.647 260.27C652.047 260.07 652.397 259.887 652.697 259.72C652.997 259.52 653.297 259.42 653.597 259.42C653.964 259.42 654.264 259.52 654.497 259.72C654.73 259.887 654.98 260.153 655.247 260.52L658.947 266.52C657.147 268.02 655.08 269.153 652.747 269.92C650.414 270.687 647.997 271.07 645.497 271.07C641.03 271.07 637.597 269.82 635.197 267.32C632.83 264.787 631.647 261.303 631.647 256.87V228.22H626.397C625.73 228.22 625.164 228.003 624.697 227.57C624.23 227.137 623.997 226.487 623.997 225.62V220.72L632.247 219.32L634.847 205.37C635.014 204.703 635.33 204.187 635.797 203.82C636.264 203.453 636.864 203.27 637.597 203.27H643.997V219.42H680.147V270.27ZM682.297 203.82C682.297 204.887 682.08 205.903 681.647 206.87C681.214 207.803 680.63 208.62 679.897 209.32C679.197 210.02 678.347 210.587 677.347 211.02C676.38 211.42 675.347 211.62 674.247 211.62C673.18 211.62 672.18 211.42 671.247 211.02C670.314 210.587 669.497 210.02 668.797 209.32C668.097 208.62 667.53 207.803 667.097 206.87C666.697 205.903 666.497 204.887 666.497 203.82C666.497 202.72 666.697 201.703 667.097 200.77C667.53 199.803 668.097 198.97 668.797 198.27C669.497 197.537 670.314 196.97 671.247 196.57C672.18 196.137 673.18 195.92 674.247 195.92C675.347 195.92 676.38 196.137 677.347 196.57C678.347 196.97 679.197 197.537 679.897 198.27C680.63 198.97 681.214 199.803 681.647 200.77C682.08 201.703 682.297 202.72 682.297 203.82ZM709.852 271.07C705.386 271.07 701.952 269.82 699.552 267.32C697.186 264.787 696.002 261.303 696.002 256.87V228.22H690.752C690.086 228.22 689.519 228.003 689.052 227.57C688.586 227.137 688.352 226.487 688.352 225.62V220.72L696.602 219.37L699.202 205.37C699.369 204.703 699.686 204.187 700.152 203.82C700.619 203.453 701.219 203.27 701.952 203.27H708.352V219.42H722.052V228.22H708.352V256.02C708.352 257.62 708.736 258.87 709.502 259.77C710.302 260.67 711.386 261.12 712.752 261.12C713.519 261.12 714.152 261.037 714.652 260.87C715.186 260.67 715.636 260.47 716.002 260.27C716.402 260.07 716.752 259.887 717.052 259.72C717.352 259.52 717.652 259.42 717.952 259.42C718.319 259.42 718.619 259.52 718.852 259.72C719.086 259.887 719.336 260.153 719.602 260.52L723.302 266.52C721.502 268.02 719.436 269.153 717.102 269.92C714.769 270.687 712.352 271.07 709.852 271.07ZM774.159 218.97V270.27H766.609C764.976 270.27 763.943 269.52 763.509 268.02L762.659 263.92C760.559 266.053 758.243 267.787 755.709 269.12C753.176 270.42 750.193 271.07 746.759 271.07C743.959 271.07 741.476 270.603 739.309 269.67C737.176 268.703 735.376 267.353 733.909 265.62C732.443 263.887 731.326 261.837 730.559 259.47C729.826 257.07 729.459 254.437 729.459 251.57V218.97H741.809V251.57C741.809 254.703 742.526 257.137 743.959 258.87C745.426 260.57 747.609 261.42 750.509 261.42C752.643 261.42 754.643 260.953 756.509 260.02C758.376 259.053 760.143 257.737 761.809 256.07V218.97H774.159ZM803.505 271.07C799.038 271.07 795.605 269.82 793.205 267.32C790.838 264.787 789.655 261.303 789.655 256.87V228.22H784.405C783.738 228.22 783.171 228.003 782.705 227.57C782.238 227.137 782.005 226.487 782.005 225.62V220.72L790.255 219.37L792.855 205.37C793.021 204.703 793.338 204.187 793.805 203.82C794.271 203.453 794.871 203.27 795.605 203.27H802.005V219.42H815.705V228.22H802.005V256.02C802.005 257.62 802.388 258.87 803.155 259.77C803.955 260.67 805.038 261.12 806.405 261.12C807.171 261.12 807.805 261.037 808.305 260.87C808.838 260.67 809.288 260.47 809.655 260.27C810.055 260.07 810.405 259.887 810.705 259.72C811.005 259.52 811.305 259.42 811.605 259.42C811.971 259.42 812.271 259.52 812.505 259.72C812.738 259.887 812.988 260.153 813.255 260.52L816.955 266.52C815.155 268.02 813.088 269.153 810.755 269.92C808.421 270.687 806.005 271.07 803.505 271.07ZM845.921 218.17C849.721 218.17 853.171 218.787 856.271 220.02C859.404 221.253 862.071 223.003 864.271 225.27C866.504 227.537 868.221 230.303 869.421 233.57C870.621 236.837 871.221 240.487 871.221 244.52C871.221 248.587 870.621 252.253 869.421 255.52C868.221 258.787 866.504 261.57 864.271 263.87C862.071 266.17 859.404 267.937 856.271 269.17C853.171 270.403 849.721 271.02 845.921 271.02C842.088 271.02 838.604 270.403 835.471 269.17C832.338 267.937 829.654 266.17 827.421 263.87C825.221 261.57 823.504 258.787 822.271 255.52C821.071 252.253 820.471 248.587 820.471 244.52C820.471 240.487 821.071 236.837 822.271 233.57C823.504 230.303 825.221 227.537 827.421 225.27C829.654 223.003 832.338 221.253 835.471 220.02C838.604 218.787 842.088 218.17 845.921 218.17ZM845.921 261.52C850.188 261.52 853.338 260.087 855.371 257.22C857.438 254.353 858.471 250.153 858.471 244.62C858.471 239.087 857.438 234.87 855.371 231.97C853.338 229.07 850.188 227.62 845.921 227.62C841.588 227.62 838.371 229.087 836.271 232.02C834.204 234.92 833.171 239.12 833.171 244.62C833.171 250.12 834.204 254.32 836.271 257.22C838.371 260.087 841.588 261.52 845.921 261.52ZM937.159 232.07C935.759 230.37 934.226 229.17 932.559 228.47C930.926 227.77 929.159 227.42 927.259 227.42C925.393 227.42 923.709 227.77 922.209 228.47C920.709 229.17 919.426 230.237 918.359 231.67C917.293 233.07 916.476 234.87 915.909 237.07C915.343 239.237 915.059 241.803 915.059 244.77C915.059 247.77 915.293 250.32 915.759 252.42C916.259 254.487 916.959 256.187 917.859 257.52C918.759 258.82 919.859 259.77 921.159 260.37C922.459 260.937 923.909 261.22 925.509 261.22C928.076 261.22 930.259 260.687 932.059 259.62C933.859 258.553 935.559 257.037 937.159 255.07V232.07ZM949.509 195.97V270.27H941.959C940.326 270.27 939.293 269.52 938.859 268.02L937.809 263.07C935.743 265.437 933.359 267.353 930.659 268.82C927.993 270.287 924.876 271.02 921.309 271.02C918.509 271.02 915.943 270.437 913.609 269.27C911.276 268.103 909.259 266.42 907.559 264.22C905.893 261.987 904.593 259.237 903.659 255.97C902.759 252.703 902.309 248.97 902.309 244.77C902.309 240.97 902.826 237.437 903.859 234.17C904.893 230.903 906.376 228.07 908.309 225.67C910.243 223.27 912.559 221.403 915.259 220.07C917.959 218.703 920.993 218.02 924.359 218.02C927.226 218.02 929.676 218.47 931.709 219.37C933.743 220.27 935.559 221.487 937.159 223.02V195.97H949.509ZM994.748 238.72C994.748 237.12 994.514 235.62 994.048 234.22C993.614 232.787 992.948 231.537 992.048 230.47C991.148 229.403 989.998 228.57 988.598 227.97C987.231 227.337 985.631 227.02 983.798 227.02C980.231 227.02 977.414 228.037 975.348 230.07C973.314 232.103 972.014 234.987 971.448 238.72H994.748ZM971.198 246.17C971.398 248.803 971.864 251.087 972.598 253.02C973.331 254.92 974.298 256.503 975.498 257.77C976.698 259.003 978.114 259.937 979.748 260.57C981.414 261.17 983.248 261.47 985.248 261.47C987.248 261.47 988.964 261.237 990.398 260.77C991.864 260.303 993.131 259.787 994.198 259.22C995.298 258.653 996.248 258.137 997.048 257.67C997.881 257.203 998.681 256.97 999.448 256.97C1000.48 256.97 1001.25 257.353 1001.75 258.12L1005.3 262.62C1003.93 264.22 1002.4 265.57 1000.7 266.67C998.998 267.737 997.214 268.603 995.348 269.27C993.514 269.903 991.631 270.353 989.698 270.62C987.798 270.887 985.948 271.02 984.148 271.02C980.581 271.02 977.264 270.437 974.198 269.27C971.131 268.07 968.464 266.32 966.198 264.02C963.931 261.687 962.148 258.82 960.848 255.42C959.548 251.987 958.898 248.02 958.898 243.52C958.898 240.02 959.464 236.737 960.598 233.67C961.731 230.57 963.348 227.887 965.448 225.62C967.581 223.32 970.164 221.503 973.198 220.17C976.264 218.837 979.714 218.17 983.548 218.17C986.781 218.17 989.764 218.687 992.498 219.72C995.231 220.753 997.581 222.27 999.548 224.27C1001.51 226.237 1003.05 228.67 1004.15 231.57C1005.28 234.437 1005.85 237.72 1005.85 241.42C1005.85 243.287 1005.65 244.553 1005.25 245.22C1004.85 245.853 1004.08 246.17 1002.95 246.17H971.198ZM1064.88 234.32C1067.35 234.32 1069.5 234.02 1071.33 233.42C1073.17 232.787 1074.68 231.903 1075.88 230.77C1077.12 229.603 1078.03 228.203 1078.63 226.57C1079.23 224.903 1079.53 223.053 1079.53 221.02C1079.53 219.087 1079.23 217.337 1078.63 215.77C1078.03 214.203 1077.13 212.87 1075.93 211.77C1074.73 210.67 1073.22 209.837 1071.38 209.27C1069.55 208.67 1067.38 208.37 1064.88 208.37H1054.83V234.32H1064.88ZM1064.88 197.97C1069.72 197.97 1073.9 198.537 1077.43 199.67C1080.97 200.803 1083.88 202.387 1086.18 204.42C1088.48 206.453 1090.18 208.887 1091.28 211.72C1092.42 214.553 1092.98 217.653 1092.98 221.02C1092.98 224.52 1092.4 227.737 1091.23 230.67C1090.07 233.57 1088.32 236.07 1085.98 238.17C1083.65 240.27 1080.72 241.903 1077.18 243.07C1073.68 244.237 1069.58 244.82 1064.88 244.82H1054.83V270.27H1041.38V197.97H1064.88ZM1132.05 238.72C1132.05 237.12 1131.82 235.62 1131.35 234.22C1130.92 232.787 1130.25 231.537 1129.35 230.47C1128.45 229.403 1127.3 228.57 1125.9 227.97C1124.54 227.337 1122.94 227.02 1121.1 227.02C1117.54 227.02 1114.72 228.037 1112.65 230.07C1110.62 232.103 1109.32 234.987 1108.75 238.72H1132.05ZM1108.5 246.17C1108.7 248.803 1109.17 251.087 1109.9 253.02C1110.64 254.92 1111.6 256.503 1112.8 257.77C1114 259.003 1115.42 259.937 1117.05 260.57C1118.72 261.17 1120.55 261.47 1122.55 261.47C1124.55 261.47 1126.27 261.237 1127.7 260.77C1129.17 260.303 1130.44 259.787 1131.5 259.22C1132.6 258.653 1133.55 258.137 1134.35 257.67C1135.19 257.203 1135.99 256.97 1136.75 256.97C1137.79 256.97 1138.55 257.353 1139.05 258.12L1142.6 262.62C1141.24 264.22 1139.7 265.57 1138 266.67C1136.3 267.737 1134.52 268.603 1132.65 269.27C1130.82 269.903 1128.94 270.353 1127 270.62C1125.1 270.887 1123.25 271.02 1121.45 271.02C1117.89 271.02 1114.57 270.437 1111.5 269.27C1108.44 268.07 1105.77 266.32 1103.5 264.02C1101.24 261.687 1099.45 258.82 1098.15 255.42C1096.85 251.987 1096.2 248.02 1096.2 243.52C1096.2 240.02 1096.77 236.737 1097.9 233.67C1099.04 230.57 1100.65 227.887 1102.75 225.62C1104.89 223.32 1107.47 221.503 1110.5 220.17C1113.57 218.837 1117.02 218.17 1120.85 218.17C1124.09 218.17 1127.07 218.687 1129.8 219.72C1132.54 220.753 1134.89 222.27 1136.85 224.27C1138.82 226.237 1140.35 228.67 1141.45 231.57C1142.59 234.437 1143.15 237.72 1143.15 241.42C1143.15 243.287 1142.95 244.553 1142.55 245.22C1142.15 245.853 1141.39 246.17 1140.25 246.17H1108.5ZM1184.62 232.07C1183.22 230.37 1181.69 229.17 1180.02 228.47C1178.39 227.77 1176.62 227.42 1174.72 227.42C1172.85 227.42 1171.17 227.77 1169.67 228.47C1168.17 229.17 1166.89 230.237 1165.82 231.67C1164.75 233.07 1163.94 234.87 1163.37 237.07C1162.8 239.237 1162.52 241.803 1162.52 244.77C1162.52 247.77 1162.75 250.32 1163.22 252.42C1163.72 254.487 1164.42 256.187 1165.32 257.52C1166.22 258.82 1167.32 259.77 1168.62 260.37C1169.92 260.937 1171.37 261.22 1172.97 261.22C1175.54 261.22 1177.72 260.687 1179.52 259.62C1181.32 258.553 1183.02 257.037 1184.62 255.07V232.07ZM1196.97 195.97V270.27H1189.42C1187.79 270.27 1186.75 269.52 1186.32 268.02L1185.27 263.07C1183.2 265.437 1180.82 267.353 1178.12 268.82C1175.45 270.287 1172.34 271.02 1168.77 271.02C1165.97 271.02 1163.4 270.437 1161.07 269.27C1158.74 268.103 1156.72 266.42 1155.02 264.22C1153.35 261.987 1152.05 259.237 1151.12 255.97C1150.22 252.703 1149.77 248.97 1149.77 244.77C1149.77 240.97 1150.29 237.437 1151.32 234.17C1152.35 230.903 1153.84 228.07 1155.77 225.67C1157.7 223.27 1160.02 221.403 1162.72 220.07C1165.42 218.703 1168.45 218.02 1171.82 218.02C1174.69 218.02 1177.14 218.47 1179.17 219.37C1181.2 220.27 1183.02 221.487 1184.62 223.02V195.97H1196.97ZM1221.96 218.97V270.27H1209.56V218.97H1221.96ZM1223.66 204.02C1223.66 205.087 1223.44 206.087 1223.01 207.02C1222.58 207.953 1221.99 208.77 1221.26 209.47C1220.56 210.17 1219.73 210.737 1218.76 211.17C1217.79 211.57 1216.76 211.77 1215.66 211.77C1214.59 211.77 1213.58 211.57 1212.61 211.17C1211.68 210.737 1210.86 210.17 1210.16 209.47C1209.46 208.77 1208.89 207.953 1208.46 207.02C1208.06 206.087 1207.86 205.087 1207.86 204.02C1207.86 202.92 1208.06 201.887 1208.46 200.92C1208.89 199.953 1209.46 199.12 1210.16 198.42C1210.86 197.72 1211.68 197.17 1212.61 196.77C1213.58 196.337 1214.59 196.12 1215.66 196.12C1216.76 196.12 1217.79 196.337 1218.76 196.77C1219.73 197.17 1220.56 197.72 1221.26 198.42C1221.99 199.12 1222.58 199.953 1223.01 200.92C1223.44 201.887 1223.66 202.92 1223.66 204.02ZM1261.65 248.37C1258.08 248.537 1255.08 248.853 1252.65 249.32C1250.22 249.753 1248.27 250.32 1246.8 251.02C1245.33 251.72 1244.28 252.537 1243.65 253.47C1243.02 254.403 1242.7 255.42 1242.7 256.52C1242.7 258.687 1243.33 260.237 1244.6 261.17C1245.9 262.103 1247.58 262.57 1249.65 262.57C1252.18 262.57 1254.37 262.12 1256.2 261.22C1258.07 260.287 1259.88 258.887 1261.65 257.02V248.37ZM1233.35 226.12C1239.25 220.72 1246.35 218.02 1254.65 218.02C1257.65 218.02 1260.33 218.52 1262.7 219.52C1265.07 220.487 1267.07 221.853 1268.7 223.62C1270.33 225.353 1271.57 227.437 1272.4 229.87C1273.27 232.303 1273.7 234.97 1273.7 237.87V270.27H1268.1C1266.93 270.27 1266.03 270.103 1265.4 269.77C1264.77 269.403 1264.27 268.687 1263.9 267.62L1262.8 263.92C1261.5 265.087 1260.23 266.12 1259 267.02C1257.77 267.887 1256.48 268.62 1255.15 269.22C1253.82 269.82 1252.38 270.27 1250.85 270.57C1249.35 270.903 1247.68 271.07 1245.85 271.07C1243.68 271.07 1241.68 270.787 1239.85 270.22C1238.02 269.62 1236.43 268.737 1235.1 267.57C1233.77 266.403 1232.73 264.953 1232 263.22C1231.27 261.487 1230.9 259.47 1230.9 257.17C1230.9 255.87 1231.12 254.587 1231.55 253.32C1231.98 252.02 1232.68 250.787 1233.65 249.62C1234.65 248.453 1235.93 247.353 1237.5 246.32C1239.07 245.287 1240.98 244.387 1243.25 243.62C1245.55 242.853 1248.22 242.237 1251.25 241.77C1254.28 241.27 1257.75 240.97 1261.65 240.87V237.87C1261.65 234.437 1260.92 231.903 1259.45 230.27C1257.98 228.603 1255.87 227.77 1253.1 227.77C1251.1 227.77 1249.43 228.003 1248.1 228.47C1246.8 228.937 1245.65 229.47 1244.65 230.07C1243.65 230.637 1242.73 231.153 1241.9 231.62C1241.1 232.087 1240.2 232.32 1239.2 232.32C1238.33 232.32 1237.6 232.103 1237 231.67C1236.4 231.203 1235.92 230.67 1235.55 230.07L1233.35 226.12ZM1301.75 271.07C1297.28 271.07 1293.85 269.82 1291.45 267.32C1289.08 264.787 1287.9 261.303 1287.9 256.87V228.22H1282.65C1281.98 228.22 1281.41 228.003 1280.95 227.57C1280.48 227.137 1280.25 226.487 1280.25 225.62V220.72L1288.5 219.37L1291.1 205.37C1291.26 204.703 1291.58 204.187 1292.05 203.82C1292.51 203.453 1293.11 203.27 1293.85 203.27H1300.25V219.42H1313.95V228.22H1300.25V256.02C1300.25 257.62 1300.63 258.87 1301.4 259.77C1302.2 260.67 1303.28 261.12 1304.65 261.12C1305.41 261.12 1306.05 261.037 1306.55 260.87C1307.08 260.67 1307.53 260.47 1307.9 260.27C1308.3 260.07 1308.65 259.887 1308.95 259.72C1309.25 259.52 1309.55 259.42 1309.85 259.42C1310.21 259.42 1310.51 259.52 1310.75 259.72C1310.98 259.887 1311.23 260.153 1311.5 260.52L1315.2 266.52C1313.4 268.02 1311.33 269.153 1309 269.92C1306.66 270.687 1304.25 271.07 1301.75 271.07ZM1333.5 227.87C1335.1 224.803 1337 222.403 1339.2 220.67C1341.4 218.903 1344 218.02 1347 218.02C1349.37 218.02 1351.27 218.537 1352.7 219.57L1351.9 228.82C1351.74 229.42 1351.49 229.853 1351.15 230.12C1350.85 230.353 1350.44 230.47 1349.9 230.47C1349.4 230.47 1348.65 230.387 1347.65 230.22C1346.69 230.053 1345.74 229.97 1344.8 229.97C1343.44 229.97 1342.22 230.17 1341.15 230.57C1340.09 230.97 1339.12 231.553 1338.25 232.32C1337.42 233.053 1336.67 233.953 1336 235.02C1335.37 236.087 1334.77 237.303 1334.2 238.67V270.27H1321.85V218.97H1329.1C1330.37 218.97 1331.25 219.203 1331.75 219.67C1332.25 220.103 1332.59 220.903 1332.75 222.07L1333.5 227.87ZM1371.96 218.97V270.27H1359.56V218.97H1371.96ZM1373.66 204.02C1373.66 205.087 1373.44 206.087 1373.01 207.02C1372.58 207.953 1371.99 208.77 1371.26 209.47C1370.56 210.17 1369.73 210.737 1368.76 211.17C1367.79 211.57 1366.76 211.77 1365.66 211.77C1364.59 211.77 1363.58 211.57 1362.61 211.17C1361.68 210.737 1360.86 210.17 1360.16 209.47C1359.46 208.77 1358.89 207.953 1358.46 207.02C1358.06 206.087 1357.86 205.087 1357.86 204.02C1357.86 202.92 1358.06 201.887 1358.46 200.92C1358.89 199.953 1359.46 199.12 1360.16 198.42C1360.86 197.72 1361.68 197.17 1362.61 196.77C1363.58 196.337 1364.59 196.12 1365.66 196.12C1366.76 196.12 1367.79 196.337 1368.76 196.77C1369.73 197.17 1370.56 197.72 1371.26 198.42C1371.99 199.12 1372.58 199.953 1373.01 200.92C1373.44 201.887 1373.66 202.92 1373.66 204.02ZM1411.65 248.37C1408.08 248.537 1405.08 248.853 1402.65 249.32C1400.22 249.753 1398.27 250.32 1396.8 251.02C1395.33 251.72 1394.28 252.537 1393.65 253.47C1393.02 254.403 1392.7 255.42 1392.7 256.52C1392.7 258.687 1393.33 260.237 1394.6 261.17C1395.9 262.103 1397.58 262.57 1399.65 262.57C1402.18 262.57 1404.37 262.12 1406.2 261.22C1408.07 260.287 1409.88 258.887 1411.65 257.02V248.37ZM1383.35 226.12C1389.25 220.72 1396.35 218.02 1404.65 218.02C1407.65 218.02 1410.33 218.52 1412.7 219.52C1415.07 220.487 1417.07 221.853 1418.7 223.62C1420.33 225.353 1421.57 227.437 1422.4 229.87C1423.27 232.303 1423.7 234.97 1423.7 237.87V270.27H1418.1C1416.93 270.27 1416.03 270.103 1415.4 269.77C1414.77 269.403 1414.27 268.687 1413.9 267.62L1412.8 263.92C1411.5 265.087 1410.23 266.12 1409 267.02C1407.77 267.887 1406.48 268.62 1405.15 269.22C1403.82 269.82 1402.38 270.27 1400.85 270.57C1399.35 270.903 1397.68 271.07 1395.85 271.07C1393.68 271.07 1391.68 270.787 1389.85 270.22C1388.02 269.62 1386.43 268.737 1385.1 267.57C1383.77 266.403 1382.73 264.953 1382 263.22C1381.27 261.487 1380.9 259.47 1380.9 257.17C1380.9 255.87 1381.12 254.587 1381.55 253.32C1381.98 252.02 1382.68 250.787 1383.65 249.62C1384.65 248.453 1385.93 247.353 1387.5 246.32C1389.07 245.287 1390.98 244.387 1393.25 243.62C1395.55 242.853 1398.22 242.237 1401.25 241.77C1404.28 241.27 1407.75 240.97 1411.65 240.87V237.87C1411.65 234.437 1410.92 231.903 1409.45 230.27C1407.98 228.603 1405.87 227.77 1403.1 227.77C1401.1 227.77 1399.43 228.003 1398.1 228.47C1396.8 228.937 1395.65 229.47 1394.65 230.07C1393.65 230.637 1392.73 231.153 1391.9 231.62C1391.1 232.087 1390.2 232.32 1389.2 232.32C1388.33 232.32 1387.6 232.103 1387 231.67C1386.4 231.203 1385.92 230.67 1385.55 230.07L1383.35 226.12ZM1492.7 238.72C1492.7 237.12 1492.46 235.62 1492 234.22C1491.56 232.787 1490.9 231.537 1490 230.47C1489.1 229.403 1487.95 228.57 1486.55 227.97C1485.18 227.337 1483.58 227.02 1481.75 227.02C1478.18 227.02 1475.36 228.037 1473.3 230.07C1471.26 232.103 1469.96 234.987 1469.4 238.72H1492.7ZM1469.15 246.17C1469.35 248.803 1469.81 251.087 1470.55 253.02C1471.28 254.92 1472.25 256.503 1473.45 257.77C1474.65 259.003 1476.06 259.937 1477.7 260.57C1479.36 261.17 1481.2 261.47 1483.2 261.47C1485.2 261.47 1486.91 261.237 1488.35 260.77C1489.81 260.303 1491.08 259.787 1492.15 259.22C1493.25 258.653 1494.2 258.137 1495 257.67C1495.83 257.203 1496.63 256.97 1497.4 256.97C1498.43 256.97 1499.2 257.353 1499.7 258.12L1503.25 262.62C1501.88 264.22 1500.35 265.57 1498.65 266.67C1496.95 267.737 1495.16 268.603 1493.3 269.27C1491.46 269.903 1489.58 270.353 1487.65 270.62C1485.75 270.887 1483.9 271.02 1482.1 271.02C1478.53 271.02 1475.21 270.437 1472.15 269.27C1469.08 268.07 1466.41 266.32 1464.15 264.02C1461.88 261.687 1460.1 258.82 1458.8 255.42C1457.5 251.987 1456.85 248.02 1456.85 243.52C1456.85 240.02 1457.41 236.737 1458.55 233.67C1459.68 230.57 1461.3 227.887 1463.4 225.62C1465.53 223.32 1468.11 221.503 1471.15 220.17C1474.21 218.837 1477.66 218.17 1481.5 218.17C1484.73 218.17 1487.71 218.687 1490.45 219.72C1493.18 220.753 1495.53 222.27 1497.5 224.27C1499.46 226.237 1501 228.67 1502.1 231.57C1503.23 234.437 1503.8 237.72 1503.8 241.42C1503.8 243.287 1503.6 244.553 1503.2 245.22C1502.8 245.853 1502.03 246.17 1500.9 246.17H1469.15ZM562 317.97V390.27H555.1C554.033 390.27 553.133 390.103 552.4 389.77C551.7 389.403 551.017 388.803 550.35 387.97L512.6 339.77C512.8 341.97 512.9 344.003 512.9 345.87V390.27H501.05V317.97H508.1C508.667 317.97 509.15 318.003 509.55 318.07C509.983 318.103 510.35 318.203 510.65 318.37C510.983 318.503 511.3 318.72 511.6 319.02C511.9 319.287 512.233 319.653 512.6 320.12L550.5 368.52C550.4 367.353 550.317 366.203 550.25 365.07C550.183 363.937 550.15 362.887 550.15 361.92V317.97H562ZM607.638 358.72C607.638 357.12 607.405 355.62 606.938 354.22C606.505 352.787 605.838 351.537 604.938 350.47C604.038 349.403 602.888 348.57 601.488 347.97C600.122 347.337 598.522 347.02 596.688 347.02C593.122 347.02 590.305 348.037 588.238 350.07C586.205 352.103 584.905 354.987 584.338 358.72H607.638ZM584.088 366.17C584.288 368.803 584.755 371.087 585.488 373.02C586.222 374.92 587.188 376.503 588.388 377.77C589.588 379.003 591.005 379.937 592.638 380.57C594.305 381.17 596.138 381.47 598.138 381.47C600.138 381.47 601.855 381.237 603.288 380.77C604.755 380.303 606.022 379.787 607.088 379.22C608.188 378.653 609.138 378.137 609.938 377.67C610.772 377.203 611.572 376.97 612.338 376.97C613.372 376.97 614.138 377.353 614.638 378.12L618.188 382.62C616.822 384.22 615.288 385.57 613.588 386.67C611.888 387.737 610.105 388.603 608.238 389.27C606.405 389.903 604.522 390.353 602.588 390.62C600.688 390.887 598.838 391.02 597.038 391.02C593.472 391.02 590.155 390.437 587.088 389.27C584.022 388.07 581.355 386.32 579.088 384.02C576.822 381.687 575.038 378.82 573.738 375.42C572.438 371.987 571.788 368.02 571.788 363.52C571.788 360.02 572.355 356.737 573.488 353.67C574.622 350.57 576.238 347.887 578.338 345.62C580.472 343.32 583.055 341.503 586.088 340.17C589.155 338.837 592.605 338.17 596.438 338.17C599.672 338.17 602.655 338.687 605.388 339.72C608.122 340.753 610.472 342.27 612.438 344.27C614.405 346.237 615.938 348.67 617.038 351.57C618.172 354.437 618.738 357.72 618.738 361.42C618.738 363.287 618.538 364.553 618.138 365.22C617.738 365.853 616.972 366.17 615.838 366.17H584.088ZM672.206 338.97V390.27H664.656C663.023 390.27 661.99 389.52 661.556 388.02L660.706 383.92C658.606 386.053 656.29 387.787 653.756 389.12C651.223 390.42 648.24 391.07 644.806 391.07C642.006 391.07 639.523 390.603 637.356 389.67C635.223 388.703 633.423 387.353 631.956 385.62C630.49 383.887 629.373 381.837 628.606 379.47C627.873 377.07 627.506 374.437 627.506 371.57V338.97H639.856V371.57C639.856 374.703 640.573 377.137 642.006 378.87C643.473 380.57 645.656 381.42 648.556 381.42C650.69 381.42 652.69 380.953 654.556 380.02C656.423 379.053 658.19 377.737 659.856 376.07V338.97H672.206ZM696.102 347.87C697.702 344.803 699.602 342.403 701.802 340.67C704.002 338.903 706.602 338.02 709.602 338.02C711.968 338.02 713.868 338.537 715.302 339.57L714.502 348.82C714.335 349.42 714.085 349.853 713.752 350.12C713.452 350.353 713.035 350.47 712.502 350.47C712.002 350.47 711.252 350.387 710.252 350.22C709.285 350.053 708.335 349.97 707.402 349.97C706.035 349.97 704.818 350.17 703.752 350.57C702.685 350.97 701.718 351.553 700.852 352.32C700.018 353.053 699.268 353.953 698.602 355.02C697.968 356.087 697.368 357.303 696.802 358.67V390.27H684.452V338.97H691.702C692.968 338.97 693.852 339.203 694.352 339.67C694.852 340.103 695.185 340.903 695.352 342.07L696.102 347.87ZM742.991 338.17C746.791 338.17 750.241 338.787 753.341 340.02C756.475 341.253 759.141 343.003 761.341 345.27C763.575 347.537 765.291 350.303 766.491 353.57C767.691 356.837 768.291 360.487 768.291 364.52C768.291 368.587 767.691 372.253 766.491 375.52C765.291 378.787 763.575 381.57 761.341 383.87C759.141 386.17 756.475 387.937 753.341 389.17C750.241 390.403 746.791 391.02 742.991 391.02C739.158 391.02 735.675 390.403 732.541 389.17C729.408 387.937 726.725 386.17 724.491 383.87C722.291 381.57 720.575 378.787 719.341 375.52C718.141 372.253 717.541 368.587 717.541 364.52C717.541 360.487 718.141 356.837 719.341 353.57C720.575 350.303 722.291 347.537 724.491 345.27C726.725 343.003 729.408 341.253 732.541 340.02C735.675 338.787 739.158 338.17 742.991 338.17ZM742.991 381.52C747.258 381.52 750.408 380.087 752.441 377.22C754.508 374.353 755.541 370.153 755.541 364.62C755.541 359.087 754.508 354.87 752.441 351.97C750.408 349.07 747.258 347.62 742.991 347.62C738.658 347.62 735.441 349.087 733.341 352.02C731.275 354.92 730.241 359.12 730.241 364.62C730.241 370.12 731.275 374.32 733.341 377.22C735.441 380.087 738.658 381.52 742.991 381.52ZM790.213 315.97V390.27H777.863V315.97H790.213ZM825.218 338.17C829.018 338.17 832.468 338.787 835.568 340.02C838.701 341.253 841.368 343.003 843.568 345.27C845.801 347.537 847.518 350.303 848.718 353.57C849.918 356.837 850.518 360.487 850.518 364.52C850.518 368.587 849.918 372.253 848.718 375.52C847.518 378.787 845.801 381.57 843.568 383.87C841.368 386.17 838.701 387.937 835.568 389.17C832.468 390.403 829.018 391.02 825.218 391.02C821.385 391.02 817.901 390.403 814.768 389.17C811.635 387.937 808.951 386.17 806.718 383.87C804.518 381.57 802.801 378.787 801.568 375.52C800.368 372.253 799.768 368.587 799.768 364.52C799.768 360.487 800.368 356.837 801.568 353.57C802.801 350.303 804.518 347.537 806.718 345.27C808.951 343.003 811.635 341.253 814.768 340.02C817.901 338.787 821.385 338.17 825.218 338.17ZM825.218 381.52C829.485 381.52 832.635 380.087 834.668 377.22C836.735 374.353 837.768 370.153 837.768 364.62C837.768 359.087 836.735 354.87 834.668 351.97C832.635 349.07 829.485 347.62 825.218 347.62C820.885 347.62 817.668 349.087 815.568 352.02C813.501 354.92 812.468 359.12 812.468 364.62C812.468 370.12 813.501 374.32 815.568 377.22C817.668 380.087 820.885 381.52 825.218 381.52ZM878.299 363.37C879.833 363.37 881.166 363.17 882.299 362.77C883.433 362.337 884.366 361.753 885.099 361.02C885.866 360.287 886.433 359.403 886.799 358.37C887.199 357.337 887.399 356.203 887.399 354.97C887.399 352.437 886.633 350.437 885.099 348.97C883.599 347.47 881.333 346.72 878.299 346.72C875.266 346.72 872.983 347.47 871.449 348.97C869.949 350.437 869.199 352.437 869.199 354.97C869.199 356.17 869.383 357.287 869.749 358.32C870.149 359.353 870.716 360.253 871.449 361.02C872.216 361.753 873.166 362.337 874.299 362.77C875.466 363.17 876.799 363.37 878.299 363.37ZM892.249 392.57C892.249 391.57 891.949 390.753 891.349 390.12C890.749 389.487 889.933 389.003 888.899 388.67C887.866 388.303 886.649 388.037 885.249 387.87C883.883 387.703 882.416 387.587 880.849 387.52C879.316 387.42 877.716 387.337 876.049 387.27C874.416 387.203 872.816 387.07 871.249 386.87C869.883 387.637 868.766 388.537 867.899 389.57C867.066 390.603 866.649 391.803 866.649 393.17C866.649 394.07 866.866 394.903 867.299 395.67C867.766 396.47 868.483 397.153 869.449 397.72C870.449 398.287 871.733 398.72 873.299 399.02C874.866 399.353 876.783 399.52 879.049 399.52C881.349 399.52 883.333 399.337 884.999 398.97C886.666 398.637 888.033 398.153 889.099 397.52C890.199 396.92 890.999 396.187 891.499 395.32C891.999 394.487 892.249 393.57 892.249 392.57ZM904.549 340.72V345.32C904.549 346.787 903.666 347.687 901.899 348.02L897.299 348.87C897.999 350.637 898.349 352.57 898.349 354.67C898.349 357.203 897.833 359.503 896.799 361.57C895.799 363.603 894.399 365.337 892.599 366.77C890.799 368.203 888.666 369.32 886.199 370.12C883.766 370.887 881.133 371.27 878.299 371.27C877.299 371.27 876.333 371.22 875.399 371.12C874.466 371.02 873.549 370.887 872.649 370.72C871.049 371.687 870.249 372.77 870.249 373.97C870.249 375.003 870.716 375.77 871.649 376.27C872.616 376.737 873.883 377.07 875.449 377.27C877.016 377.47 878.799 377.603 880.799 377.67C882.799 377.703 884.849 377.803 886.949 377.97C889.049 378.137 891.099 378.437 893.099 378.87C895.099 379.27 896.883 379.92 898.449 380.82C900.016 381.72 901.266 382.953 902.199 384.52C903.166 386.053 903.649 388.037 903.649 390.47C903.649 392.737 903.083 394.937 901.949 397.07C900.849 399.203 899.233 401.103 897.099 402.77C894.999 404.437 892.399 405.77 889.299 406.77C886.233 407.803 882.733 408.32 878.799 408.32C874.933 408.32 871.566 407.937 868.699 407.17C865.833 406.437 863.449 405.437 861.549 404.17C859.649 402.937 858.233 401.503 857.299 399.87C856.366 398.237 855.899 396.537 855.899 394.77C855.899 392.37 856.616 390.37 858.049 388.77C859.516 387.137 861.516 385.837 864.049 384.87C862.683 384.17 861.599 383.237 860.799 382.07C859.999 380.903 859.599 379.37 859.599 377.47C859.599 376.703 859.733 375.92 859.999 375.12C860.299 374.287 860.716 373.47 861.249 372.67C861.816 371.87 862.516 371.12 863.349 370.42C864.183 369.687 865.166 369.037 866.299 368.47C863.699 367.07 861.649 365.203 860.149 362.87C858.683 360.537 857.949 357.803 857.949 354.67C857.949 352.137 858.449 349.853 859.449 347.82C860.483 345.753 861.899 344.003 863.699 342.57C865.533 341.103 867.683 339.987 870.149 339.22C872.649 338.453 875.366 338.07 878.299 338.07C880.499 338.07 882.566 338.303 884.499 338.77C886.433 339.203 888.199 339.853 889.799 340.72H904.549ZM925.181 338.97V390.27H912.781V338.97H925.181ZM926.881 324.02C926.881 325.087 926.665 326.087 926.231 327.02C925.798 327.953 925.215 328.77 924.481 329.47C923.781 330.17 922.948 330.737 921.981 331.17C921.015 331.57 919.981 331.77 918.881 331.77C917.815 331.77 916.798 331.57 915.831 331.17C914.898 330.737 914.081 330.17 913.381 329.47C912.681 328.77 912.115 327.953 911.681 327.02C911.281 326.087 911.081 325.087 911.081 324.02C911.081 322.92 911.281 321.887 911.681 320.92C912.115 319.953 912.681 319.12 913.381 318.42C914.081 317.72 914.898 317.17 915.831 316.77C916.798 316.337 917.815 316.12 918.881 316.12C919.981 316.12 921.015 316.337 921.981 316.77C922.948 317.17 923.781 317.72 924.481 318.42C925.215 319.12 925.798 319.953 926.231 320.92C926.665 321.887 926.881 322.92 926.881 324.02ZM964.872 368.37C961.305 368.537 958.305 368.853 955.872 369.32C953.439 369.753 951.489 370.32 950.022 371.02C948.555 371.72 947.505 372.537 946.872 373.47C946.239 374.403 945.922 375.42 945.922 376.52C945.922 378.687 946.555 380.237 947.822 381.17C949.122 382.103 950.805 382.57 952.872 382.57C955.405 382.57 957.589 382.12 959.422 381.22C961.289 380.287 963.105 378.887 964.872 377.02V368.37ZM936.572 346.12C942.472 340.72 949.572 338.02 957.872 338.02C960.872 338.02 963.555 338.52 965.922 339.52C968.289 340.487 970.289 341.853 971.922 343.62C973.555 345.353 974.789 347.437 975.622 349.87C976.489 352.303 976.922 354.97 976.922 357.87V390.27H971.322C970.155 390.27 969.255 390.103 968.622 389.77C967.989 389.403 967.489 388.687 967.122 387.62L966.022 383.92C964.722 385.087 963.455 386.12 962.222 387.02C960.989 387.887 959.705 388.62 958.372 389.22C957.039 389.82 955.605 390.27 954.072 390.57C952.572 390.903 950.905 391.07 949.072 391.07C946.905 391.07 944.905 390.787 943.072 390.22C941.239 389.62 939.655 388.737 938.322 387.57C936.989 386.403 935.955 384.953 935.222 383.22C934.489 381.487 934.122 379.47 934.122 377.17C934.122 375.87 934.339 374.587 934.772 373.32C935.205 372.02 935.905 370.787 936.872 369.62C937.872 368.453 939.155 367.353 940.722 366.32C942.289 365.287 944.205 364.387 946.472 363.62C948.772 362.853 951.439 362.237 954.472 361.77C957.505 361.27 960.972 360.97 964.872 360.87V357.87C964.872 354.437 964.139 351.903 962.672 350.27C961.205 348.603 959.089 347.77 956.322 347.77C954.322 347.77 952.655 348.003 951.322 348.47C950.022 348.937 948.872 349.47 947.872 350.07C946.872 350.637 945.955 351.153 945.122 351.62C944.322 352.087 943.422 352.32 942.422 352.32C941.555 352.32 940.822 352.103 940.222 351.67C939.622 351.203 939.139 350.67 938.772 350.07L936.572 346.12Z" fill="white"/>
<path d="M21.454 498.824C23.1313 498.824 24.5933 498.62 25.84 498.212C27.0867 497.781 28.118 497.181 28.934 496.41C29.7727 495.617 30.396 494.665 30.804 493.554C31.212 492.421 31.416 491.163 31.416 489.78C31.416 488.465 31.212 487.275 30.804 486.21C30.396 485.145 29.784 484.238 28.968 483.49C28.152 482.742 27.1207 482.175 25.874 481.79C24.6273 481.382 23.154 481.178 21.454 481.178H14.62V498.824H21.454ZM21.454 474.106C24.7407 474.106 27.5853 474.491 29.988 475.262C32.3907 476.033 34.374 477.109 35.938 478.492C37.502 479.875 38.658 481.529 39.406 483.456C40.1767 485.383 40.562 487.491 40.562 489.78C40.562 492.16 40.1653 494.347 39.372 496.342C38.5787 498.314 37.3887 500.014 35.802 501.442C34.2153 502.87 32.2207 503.981 29.818 504.774C27.438 505.567 24.65 505.964 21.454 505.964H14.62V523.27H5.474V474.106H21.454ZM67.1298 501.816C67.1298 500.728 66.9711 499.708 66.6538 498.756C66.3591 497.781 65.9058 496.931 65.2938 496.206C64.6818 495.481 63.8998 494.914 62.9478 494.506C62.0185 494.075 60.9305 493.86 59.6838 493.86C57.2585 493.86 55.3431 494.551 53.9378 495.934C52.5551 497.317 51.6711 499.277 51.2858 501.816H67.1298ZM51.1158 506.882C51.2518 508.673 51.5691 510.225 52.0678 511.54C52.5665 512.832 53.2238 513.909 54.0398 514.77C54.8558 515.609 55.8191 516.243 56.9298 516.674C58.0631 517.082 59.3098 517.286 60.6698 517.286C62.0298 517.286 63.1971 517.127 64.1718 516.81C65.1691 516.493 66.0305 516.141 66.7558 515.756C67.5038 515.371 68.1498 515.019 68.6938 514.702C69.2605 514.385 69.8045 514.226 70.3258 514.226C71.0285 514.226 71.5498 514.487 71.8898 515.008L74.3038 518.068C73.3745 519.156 72.3318 520.074 71.1758 520.822C70.0198 521.547 68.8071 522.137 67.5378 522.59C66.2911 523.021 65.0105 523.327 63.6958 523.508C62.4038 523.689 61.1458 523.78 59.9218 523.78C57.4965 523.78 55.2411 523.383 53.1558 522.59C51.0705 521.774 49.2571 520.584 47.7158 519.02C46.1745 517.433 44.9618 515.484 44.0778 513.172C43.1938 510.837 42.7518 508.14 42.7518 505.08C42.7518 502.7 43.1371 500.467 43.9078 498.382C44.6785 496.274 45.7778 494.449 47.2058 492.908C48.6565 491.344 50.4131 490.109 52.4758 489.202C54.5611 488.295 56.9071 487.842 59.5138 487.842C61.7125 487.842 63.7411 488.193 65.5998 488.896C67.4585 489.599 69.0565 490.63 70.3938 491.99C71.7311 493.327 72.7738 494.982 73.5218 496.954C74.2925 498.903 74.6778 501.136 74.6778 503.652C74.6778 504.921 74.5418 505.783 74.2698 506.236C73.9978 506.667 73.4765 506.882 72.7058 506.882H51.1158ZM102.876 497.294C101.924 496.138 100.881 495.322 99.748 494.846C98.6374 494.37 97.436 494.132 96.144 494.132C94.8747 494.132 93.73 494.37 92.71 494.846C91.69 495.322 90.8174 496.047 90.092 497.022C89.3667 497.974 88.8114 499.198 88.426 500.694C88.0407 502.167 87.848 503.913 87.848 505.93C87.848 507.97 88.0067 509.704 88.324 511.132C88.664 512.537 89.14 513.693 89.752 514.6C90.364 515.484 91.112 516.13 91.996 516.538C92.88 516.923 93.866 517.116 94.954 517.116C96.6994 517.116 98.184 516.753 99.408 516.028C100.632 515.303 101.788 514.271 102.876 512.934V497.294ZM111.274 472.746V523.27H106.14C105.029 523.27 104.327 522.76 104.032 521.74L103.318 518.374C101.913 519.983 100.292 521.287 98.456 522.284C96.6427 523.281 94.5234 523.78 92.098 523.78C90.194 523.78 88.4487 523.383 86.862 522.59C85.2754 521.797 83.904 520.652 82.748 519.156C81.6147 517.637 80.7307 515.767 80.096 513.546C79.484 511.325 79.178 508.786 79.178 505.93C79.178 503.346 79.5294 500.943 80.232 498.722C80.9347 496.501 81.9434 494.574 83.258 492.942C84.5727 491.31 86.148 490.041 87.984 489.134C89.82 488.205 91.8827 487.74 94.172 487.74C96.1214 487.74 97.7874 488.046 99.17 488.658C100.553 489.27 101.788 490.097 102.876 491.14V472.746H111.274ZM128.266 488.386V523.27H119.834V488.386H128.266ZM129.422 478.22C129.422 478.945 129.275 479.625 128.98 480.26C128.685 480.895 128.289 481.45 127.79 481.926C127.314 482.402 126.747 482.787 126.09 483.082C125.433 483.354 124.73 483.49 123.982 483.49C123.257 483.49 122.565 483.354 121.908 483.082C121.273 482.787 120.718 482.402 120.242 481.926C119.766 481.45 119.381 480.895 119.086 480.26C118.814 479.625 118.678 478.945 118.678 478.22C118.678 477.472 118.814 476.769 119.086 476.112C119.381 475.455 119.766 474.888 120.242 474.412C120.718 473.936 121.273 473.562 121.908 473.29C122.565 472.995 123.257 472.848 123.982 472.848C124.73 472.848 125.433 472.995 126.09 473.29C126.747 473.562 127.314 473.936 127.79 474.412C128.289 474.888 128.685 475.455 128.98 476.112C129.275 476.769 129.422 477.472 129.422 478.22ZM155.256 508.378C152.83 508.491 150.79 508.707 149.136 509.024C147.481 509.319 146.155 509.704 145.158 510.18C144.16 510.656 143.446 511.211 143.016 511.846C142.585 512.481 142.37 513.172 142.37 513.92C142.37 515.393 142.8 516.447 143.662 517.082C144.546 517.717 145.69 518.034 147.096 518.034C148.818 518.034 150.303 517.728 151.55 517.116C152.819 516.481 154.054 515.529 155.256 514.26V508.378ZM136.012 493.248C140.024 489.576 144.852 487.74 150.496 487.74C152.536 487.74 154.36 488.08 155.97 488.76C157.579 489.417 158.939 490.347 160.05 491.548C161.16 492.727 161.999 494.143 162.566 495.798C163.155 497.453 163.45 499.266 163.45 501.238V523.27H159.642C158.848 523.27 158.236 523.157 157.806 522.93C157.375 522.681 157.035 522.193 156.786 521.468L156.038 518.952C155.154 519.745 154.292 520.448 153.454 521.06C152.615 521.649 151.742 522.148 150.836 522.556C149.929 522.964 148.954 523.27 147.912 523.474C146.892 523.701 145.758 523.814 144.512 523.814C143.038 523.814 141.678 523.621 140.432 523.236C139.185 522.828 138.108 522.227 137.202 521.434C136.295 520.641 135.592 519.655 135.094 518.476C134.595 517.297 134.346 515.926 134.346 514.362C134.346 513.478 134.493 512.605 134.788 511.744C135.082 510.86 135.558 510.021 136.216 509.228C136.896 508.435 137.768 507.687 138.834 506.984C139.899 506.281 141.202 505.669 142.744 505.148C144.308 504.627 146.121 504.207 148.184 503.89C150.246 503.55 152.604 503.346 155.256 503.278V501.238C155.256 498.903 154.757 497.181 153.76 496.07C152.762 494.937 151.323 494.37 149.442 494.37C148.082 494.37 146.948 494.529 146.042 494.846C145.158 495.163 144.376 495.526 143.696 495.934C143.016 496.319 142.392 496.671 141.826 496.988C141.282 497.305 140.67 497.464 139.99 497.464C139.4 497.464 138.902 497.317 138.494 497.022C138.086 496.705 137.757 496.342 137.508 495.934L136.012 493.248ZM182.522 523.814C179.485 523.814 177.15 522.964 175.518 521.264C173.909 519.541 173.104 517.173 173.104 514.158V494.676H169.534C169.081 494.676 168.695 494.529 168.378 494.234C168.061 493.939 167.902 493.497 167.902 492.908V489.576L173.512 488.658L175.28 479.138C175.393 478.685 175.609 478.333 175.926 478.084C176.243 477.835 176.651 477.71 177.15 477.71H181.502V488.692H190.818V494.676H181.502V513.58C181.502 514.668 181.763 515.518 182.284 516.13C182.828 516.742 183.565 517.048 184.494 517.048C185.015 517.048 185.446 516.991 185.786 516.878C186.149 516.742 186.455 516.606 186.704 516.47C186.976 516.334 187.214 516.209 187.418 516.096C187.622 515.96 187.826 515.892 188.03 515.892C188.279 515.892 188.483 515.96 188.642 516.096C188.801 516.209 188.971 516.391 189.152 516.64L191.668 520.72C190.444 521.74 189.039 522.511 187.452 523.032C185.865 523.553 184.222 523.814 182.522 523.814ZM204.117 494.438C205.205 492.353 206.497 490.721 207.993 489.542C209.489 488.341 211.257 487.74 213.297 487.74C214.906 487.74 216.198 488.091 217.173 488.794L216.629 495.084C216.516 495.492 216.346 495.787 216.119 495.968C215.915 496.127 215.632 496.206 215.269 496.206C214.929 496.206 214.419 496.149 213.739 496.036C213.082 495.923 212.436 495.866 211.801 495.866C210.872 495.866 210.044 496.002 209.319 496.274C208.594 496.546 207.936 496.943 207.347 497.464C206.78 497.963 206.27 498.575 205.817 499.3C205.386 500.025 204.978 500.853 204.593 501.782V523.27H196.195V488.386H201.125C201.986 488.386 202.587 488.545 202.927 488.862C203.267 489.157 203.494 489.701 203.607 490.494L204.117 494.438ZM230.266 488.386V523.27H221.834V488.386H230.266ZM231.422 478.22C231.422 478.945 231.275 479.625 230.98 480.26C230.685 480.895 230.289 481.45 229.79 481.926C229.314 482.402 228.747 482.787 228.09 483.082C227.433 483.354 226.73 483.49 225.982 483.49C225.257 483.49 224.565 483.354 223.908 483.082C223.273 482.787 222.718 482.402 222.242 481.926C221.766 481.45 221.381 480.895 221.086 480.26C220.814 479.625 220.678 478.945 220.678 478.22C220.678 477.472 220.814 476.769 221.086 476.112C221.381 475.455 221.766 474.888 222.242 474.412C222.718 473.936 223.273 473.562 223.908 473.29C224.565 472.995 225.257 472.848 225.982 472.848C226.73 472.848 227.433 472.995 228.09 473.29C228.747 473.562 229.314 473.936 229.79 474.412C230.289 474.888 230.685 475.455 230.98 476.112C231.275 476.769 231.422 477.472 231.422 478.22ZM257.256 508.378C254.83 508.491 252.79 508.707 251.136 509.024C249.481 509.319 248.155 509.704 247.158 510.18C246.16 510.656 245.446 511.211 245.016 511.846C244.585 512.481 244.37 513.172 244.37 513.92C244.37 515.393 244.8 516.447 245.662 517.082C246.546 517.717 247.69 518.034 249.096 518.034C250.818 518.034 252.303 517.728 253.55 517.116C254.819 516.481 256.054 515.529 257.256 514.26V508.378ZM238.012 493.248C242.024 489.576 246.852 487.74 252.496 487.74C254.536 487.74 256.36 488.08 257.97 488.76C259.579 489.417 260.939 490.347 262.05 491.548C263.16 492.727 263.999 494.143 264.566 495.798C265.155 497.453 265.45 499.266 265.45 501.238V523.27H261.642C260.848 523.27 260.236 523.157 259.806 522.93C259.375 522.681 259.035 522.193 258.786 521.468L258.038 518.952C257.154 519.745 256.292 520.448 255.454 521.06C254.615 521.649 253.742 522.148 252.836 522.556C251.929 522.964 250.954 523.27 249.912 523.474C248.892 523.701 247.758 523.814 246.512 523.814C245.038 523.814 243.678 523.621 242.432 523.236C241.185 522.828 240.108 522.227 239.202 521.434C238.295 520.641 237.592 519.655 237.094 518.476C236.595 517.297 236.346 515.926 236.346 514.362C236.346 513.478 236.493 512.605 236.788 511.744C237.082 510.86 237.558 510.021 238.216 509.228C238.896 508.435 239.768 507.687 240.834 506.984C241.899 506.281 243.202 505.669 244.744 505.148C246.308 504.627 248.121 504.207 250.184 503.89C252.246 503.55 254.604 503.346 257.256 503.278V501.238C257.256 498.903 256.757 497.181 255.76 496.07C254.762 494.937 253.323 494.37 251.442 494.37C250.082 494.37 248.948 494.529 248.042 494.846C247.158 495.163 246.376 495.526 245.696 495.934C245.016 496.319 244.392 496.671 243.826 496.988C243.282 497.305 242.67 497.464 241.99 497.464C241.4 497.464 240.902 497.317 240.494 497.022C240.086 496.705 239.757 496.342 239.508 495.934L238.012 493.248ZM289.622 499.232H307.234V506.236H289.622V499.232ZM374.568 474.106V523.27H365.388V501.782H342.302V523.27H333.122V474.106H342.302V495.254H365.388V474.106H374.568ZM405.602 501.816C405.602 500.728 405.444 499.708 405.126 498.756C404.832 497.781 404.378 496.931 403.766 496.206C403.154 495.481 402.372 494.914 401.42 494.506C400.491 494.075 399.403 493.86 398.156 493.86C395.731 493.86 393.816 494.551 392.41 495.934C391.028 497.317 390.144 499.277 389.758 501.816H405.602ZM389.588 506.882C389.724 508.673 390.042 510.225 390.54 511.54C391.039 512.832 391.696 513.909 392.512 514.77C393.328 515.609 394.292 516.243 395.402 516.674C396.536 517.082 397.782 517.286 399.142 517.286C400.502 517.286 401.67 517.127 402.644 516.81C403.642 516.493 404.503 516.141 405.228 515.756C405.976 515.371 406.622 515.019 407.166 514.702C407.733 514.385 408.277 514.226 408.798 514.226C409.501 514.226 410.022 514.487 410.362 515.008L412.776 518.068C411.847 519.156 410.804 520.074 409.648 520.822C408.492 521.547 407.28 522.137 406.01 522.59C404.764 523.021 403.483 523.327 402.168 523.508C400.876 523.689 399.618 523.78 398.394 523.78C395.969 523.78 393.714 523.383 391.628 522.59C389.543 521.774 387.73 520.584 386.188 519.02C384.647 517.433 383.434 515.484 382.55 513.172C381.666 510.837 381.224 508.14 381.224 505.08C381.224 502.7 381.61 500.467 382.38 498.382C383.151 496.274 384.25 494.449 385.678 492.908C387.129 491.344 388.886 490.109 390.948 489.202C393.034 488.295 395.38 487.842 397.986 487.842C400.185 487.842 402.214 488.193 404.072 488.896C405.931 489.599 407.529 490.63 408.866 491.99C410.204 493.327 411.246 494.982 411.994 496.954C412.765 498.903 413.15 501.136 413.15 503.652C413.15 504.921 413.014 505.783 412.742 506.236C412.47 506.667 411.949 506.882 411.178 506.882H389.588ZM427.851 514.226C428.803 515.382 429.834 516.198 430.945 516.674C432.078 517.15 433.268 517.388 434.515 517.388C435.807 517.388 436.963 517.161 437.983 516.708C439.025 516.232 439.909 515.507 440.635 514.532C441.36 513.535 441.915 512.277 442.301 510.758C442.686 509.217 442.879 507.381 442.879 505.25C442.879 501.419 442.244 498.654 440.975 496.954C439.705 495.231 437.881 494.37 435.501 494.37C433.891 494.37 432.486 494.744 431.285 495.492C430.083 496.217 428.939 497.249 427.851 498.586V514.226ZM427.851 492.67C429.256 491.197 430.809 490.029 432.509 489.168C434.231 488.284 436.192 487.842 438.391 487.842C440.408 487.842 442.221 488.239 443.831 489.032C445.463 489.825 446.845 490.97 447.979 492.466C449.135 493.939 450.019 495.73 450.631 497.838C451.243 499.946 451.549 502.315 451.549 504.944C451.549 507.777 451.197 510.35 450.495 512.662C449.792 514.974 448.783 516.957 447.469 518.612C446.177 520.244 444.613 521.513 442.777 522.42C440.941 523.327 438.901 523.78 436.657 523.78C435.569 523.78 434.583 523.667 433.699 523.44C432.815 523.236 431.999 522.941 431.251 522.556C430.503 522.171 429.811 521.706 429.177 521.162C428.565 520.595 427.975 519.972 427.409 519.292L427.035 521.638C426.899 522.227 426.661 522.647 426.321 522.896C426.003 523.145 425.561 523.27 424.995 523.27H419.453V472.746H427.851V492.67ZM466.739 488.386V523.27H458.307V488.386H466.739ZM467.895 478.22C467.895 478.945 467.747 479.625 467.453 480.26C467.158 480.895 466.761 481.45 466.263 481.926C465.787 482.402 465.22 482.787 464.563 483.082C463.905 483.354 463.203 483.49 462.455 483.49C461.729 483.49 461.038 483.354 460.381 483.082C459.746 482.787 459.191 482.402 458.715 481.926C458.239 481.45 457.853 480.895 457.559 480.26C457.287 479.625 457.151 478.945 457.151 478.22C457.151 477.472 457.287 476.769 457.559 476.112C457.853 475.455 458.239 474.888 458.715 474.412C459.191 473.936 459.746 473.562 460.381 473.29C461.038 472.995 461.729 472.848 462.455 472.848C463.203 472.848 463.905 472.995 464.563 473.29C465.22 473.562 465.787 473.936 466.263 474.412C466.761 474.888 467.158 475.455 467.453 476.112C467.747 476.769 467.895 477.472 467.895 478.22ZM493.728 508.378C491.303 508.491 489.263 508.707 487.608 509.024C485.954 509.319 484.628 509.704 483.63 510.18C482.633 510.656 481.919 511.211 481.488 511.846C481.058 512.481 480.842 513.172 480.842 513.92C480.842 515.393 481.273 516.447 482.134 517.082C483.018 517.717 484.163 518.034 485.568 518.034C487.291 518.034 488.776 517.728 490.022 517.116C491.292 516.481 492.527 515.529 493.728 514.26V508.378ZM474.484 493.248C478.496 489.576 483.324 487.74 488.968 487.74C491.008 487.74 492.833 488.08 494.442 488.76C496.052 489.417 497.412 490.347 498.522 491.548C499.633 492.727 500.472 494.143 501.038 495.798C501.628 497.453 501.922 499.266 501.922 501.238V523.27H498.114C497.321 523.27 496.709 523.157 496.278 522.93C495.848 522.681 495.508 522.193 495.258 521.468L494.51 518.952C493.626 519.745 492.765 520.448 491.926 521.06C491.088 521.649 490.215 522.148 489.308 522.556C488.402 522.964 487.427 523.27 486.384 523.474C485.364 523.701 484.231 523.814 482.984 523.814C481.511 523.814 480.151 523.621 478.904 523.236C477.658 522.828 476.581 522.227 475.674 521.434C474.768 520.641 474.065 519.655 473.566 518.476C473.068 517.297 472.818 515.926 472.818 514.362C472.818 513.478 472.966 512.605 473.26 511.744C473.555 510.86 474.031 510.021 474.688 509.228C475.368 508.435 476.241 507.687 477.306 506.984C478.372 506.281 479.675 505.669 481.216 505.148C482.78 504.627 484.594 504.207 486.656 503.89C488.719 503.55 491.076 503.346 493.728 503.278V501.238C493.728 498.903 493.23 497.181 492.232 496.07C491.235 494.937 489.796 494.37 487.914 494.37C486.554 494.37 485.421 494.529 484.514 494.846C483.63 495.163 482.848 495.526 482.168 495.934C481.488 496.319 480.865 496.671 480.298 496.988C479.754 497.305 479.142 497.464 478.462 497.464C477.873 497.464 477.374 497.317 476.966 497.022C476.558 496.705 476.23 496.342 475.98 495.934L474.484 493.248ZM520.995 523.814C517.957 523.814 515.623 522.964 513.991 521.264C512.381 519.541 511.577 517.173 511.577 514.158V494.676H508.007C507.553 494.676 507.168 494.529 506.851 494.234C506.533 493.939 506.375 493.497 506.375 492.908V489.576L511.985 488.658L513.753 479.138C513.866 478.685 514.081 478.333 514.399 478.084C514.716 477.835 515.124 477.71 515.623 477.71H519.975V488.692H529.291V494.676H519.975V513.58C519.975 514.668 520.235 515.518 520.757 516.13C521.301 516.742 522.037 517.048 522.967 517.048C523.488 517.048 523.919 516.991 524.259 516.878C524.621 516.742 524.927 516.606 525.177 516.47C525.449 516.334 525.687 516.209 525.891 516.096C526.095 515.96 526.299 515.892 526.503 515.892C526.752 515.892 526.956 515.96 527.115 516.096C527.273 516.209 527.443 516.391 527.625 516.64L530.141 520.72C528.917 521.74 527.511 522.511 525.925 523.032C524.338 523.553 522.695 523.814 520.995 523.814ZM542.59 494.438C543.678 492.353 544.97 490.721 546.466 489.542C547.962 488.341 549.73 487.74 551.77 487.74C553.379 487.74 554.671 488.091 555.646 488.794L555.102 495.084C554.988 495.492 554.818 495.787 554.592 495.968C554.388 496.127 554.104 496.206 553.742 496.206C553.402 496.206 552.892 496.149 552.212 496.036C551.554 495.923 550.908 495.866 550.274 495.866C549.344 495.866 548.517 496.002 547.792 496.274C547.066 496.546 546.409 496.943 545.82 497.464C545.253 497.963 544.743 498.575 544.29 499.3C543.859 500.025 543.451 500.853 543.066 501.782V523.27H534.668V488.386H539.598C540.459 488.386 541.06 488.545 541.4 488.862C541.74 489.157 541.966 489.701 542.08 490.494L542.59 494.438ZM568.739 488.386V523.27H560.307V488.386H568.739ZM569.895 478.22C569.895 478.945 569.747 479.625 569.453 480.26C569.158 480.895 568.761 481.45 568.263 481.926C567.787 482.402 567.22 482.787 566.563 483.082C565.905 483.354 565.203 483.49 564.455 483.49C563.729 483.49 563.038 483.354 562.381 483.082C561.746 482.787 561.191 482.402 560.715 481.926C560.239 481.45 559.853 480.895 559.559 480.26C559.287 479.625 559.151 478.945 559.151 478.22C559.151 477.472 559.287 476.769 559.559 476.112C559.853 475.455 560.239 474.888 560.715 474.412C561.191 473.936 561.746 473.562 562.381 473.29C563.038 472.995 563.729 472.848 564.455 472.848C565.203 472.848 565.905 472.995 566.563 473.29C567.22 473.562 567.787 473.936 568.263 474.412C568.761 474.888 569.158 475.455 569.453 476.112C569.747 476.769 569.895 477.472 569.895 478.22ZM595.728 508.378C593.303 508.491 591.263 508.707 589.608 509.024C587.954 509.319 586.628 509.704 585.63 510.18C584.633 510.656 583.919 511.211 583.488 511.846C583.058 512.481 582.842 513.172 582.842 513.92C582.842 515.393 583.273 516.447 584.134 517.082C585.018 517.717 586.163 518.034 587.568 518.034C589.291 518.034 590.776 517.728 592.022 517.116C593.292 516.481 594.527 515.529 595.728 514.26V508.378ZM576.484 493.248C580.496 489.576 585.324 487.74 590.968 487.74C593.008 487.74 594.833 488.08 596.442 488.76C598.052 489.417 599.412 490.347 600.522 491.548C601.633 492.727 602.472 494.143 603.038 495.798C603.628 497.453 603.922 499.266 603.922 501.238V523.27H600.114C599.321 523.27 598.709 523.157 598.278 522.93C597.848 522.681 597.508 522.193 597.258 521.468L596.51 518.952C595.626 519.745 594.765 520.448 593.926 521.06C593.088 521.649 592.215 522.148 591.308 522.556C590.402 522.964 589.427 523.27 588.384 523.474C587.364 523.701 586.231 523.814 584.984 523.814C583.511 523.814 582.151 523.621 580.904 523.236C579.658 522.828 578.581 522.227 577.674 521.434C576.768 520.641 576.065 519.655 575.566 518.476C575.068 517.297 574.818 515.926 574.818 514.362C574.818 513.478 574.966 512.605 575.26 511.744C575.555 510.86 576.031 510.021 576.688 509.228C577.368 508.435 578.241 507.687 579.306 506.984C580.372 506.281 581.675 505.669 583.216 505.148C584.78 504.627 586.594 504.207 588.656 503.89C590.719 503.55 593.076 503.346 595.728 503.278V501.238C595.728 498.903 595.23 497.181 594.232 496.07C593.235 494.937 591.796 494.37 589.914 494.37C588.554 494.37 587.421 494.529 586.514 494.846C585.63 495.163 584.848 495.526 584.168 495.934C583.488 496.319 582.865 496.671 582.298 496.988C581.754 497.305 581.142 497.464 580.462 497.464C579.873 497.464 579.374 497.317 578.966 497.022C578.558 496.705 578.23 496.342 577.98 495.934L576.484 493.248ZM628.095 499.232H645.707V506.236H628.095V499.232ZM713.041 474.106V523.27H708.349C707.624 523.27 707.012 523.157 706.513 522.93C706.037 522.681 705.572 522.273 705.119 521.706L679.449 488.93C679.585 490.426 679.653 491.809 679.653 493.078V523.27H671.595V474.106H676.389C676.774 474.106 677.103 474.129 677.375 474.174C677.67 474.197 677.919 474.265 678.123 474.378C678.35 474.469 678.565 474.616 678.769 474.82C678.973 475.001 679.2 475.251 679.449 475.568L705.221 508.48C705.153 507.687 705.096 506.905 705.051 506.134C705.006 505.363 704.983 504.649 704.983 503.992V474.106H713.041ZM744.075 501.816C744.075 500.728 743.916 499.708 743.599 498.756C743.304 497.781 742.851 496.931 742.239 496.206C741.627 495.481 740.845 494.914 739.893 494.506C738.964 494.075 737.876 493.86 736.629 493.86C734.204 493.86 732.288 494.551 730.883 495.934C729.5 497.317 728.616 499.277 728.231 501.816H744.075ZM728.061 506.882C728.197 508.673 728.514 510.225 729.013 511.54C729.512 512.832 730.169 513.909 730.985 514.77C731.801 515.609 732.764 516.243 733.875 516.674C735.008 517.082 736.255 517.286 737.615 517.286C738.975 517.286 740.142 517.127 741.117 516.81C742.114 516.493 742.976 516.141 743.701 515.756C744.449 515.371 745.095 515.019 745.639 514.702C746.206 514.385 746.75 514.226 747.271 514.226C747.974 514.226 748.495 514.487 748.835 515.008L751.249 518.068C750.32 519.156 749.277 520.074 748.121 520.822C746.965 521.547 745.752 522.137 744.483 522.59C743.236 523.021 741.956 523.327 740.641 523.508C739.349 523.689 738.091 523.78 736.867 523.78C734.442 523.78 732.186 523.383 730.101 522.59C728.016 521.774 726.202 520.584 724.661 519.02C723.12 517.433 721.907 515.484 721.023 513.172C720.139 510.837 719.697 508.14 719.697 505.08C719.697 502.7 720.082 500.467 720.853 498.382C721.624 496.274 722.723 494.449 724.151 492.908C725.602 491.344 727.358 490.109 729.421 489.202C731.506 488.295 733.852 487.842 736.459 487.842C738.658 487.842 740.686 488.193 742.545 488.896C744.404 489.599 746.002 490.63 747.339 491.99C748.676 493.327 749.719 494.982 750.467 496.954C751.238 498.903 751.623 501.136 751.623 503.652C751.623 504.921 751.487 505.783 751.215 506.236C750.943 506.667 750.422 506.882 749.651 506.882H728.061ZM787.981 488.386V523.27H782.847C781.737 523.27 781.034 522.76 780.739 521.74L780.161 518.952C778.733 520.403 777.158 521.581 775.435 522.488C773.713 523.372 771.684 523.814 769.349 523.814C767.445 523.814 765.757 523.497 764.283 522.862C762.833 522.205 761.609 521.287 760.611 520.108C759.614 518.929 758.855 517.535 758.333 515.926C757.835 514.294 757.585 512.503 757.585 510.554V488.386H765.983V510.554C765.983 512.685 766.471 514.339 767.445 515.518C768.443 516.674 769.927 517.252 771.899 517.252C773.35 517.252 774.71 516.935 775.979 516.3C777.249 515.643 778.45 514.747 779.583 513.614V488.386H787.981ZM804.23 494.438C805.318 492.353 806.61 490.721 808.106 489.542C809.602 488.341 811.37 487.74 813.41 487.74C815.019 487.74 816.311 488.091 817.286 488.794L816.742 495.084C816.629 495.492 816.459 495.787 816.232 495.968C816.028 496.127 815.745 496.206 815.382 496.206C815.042 496.206 814.532 496.149 813.852 496.036C813.195 495.923 812.549 495.866 811.914 495.866C810.985 495.866 810.157 496.002 809.432 496.274C808.707 496.546 808.049 496.943 807.46 497.464C806.893 497.963 806.383 498.575 805.93 499.3C805.499 500.025 805.091 500.853 804.706 501.782V523.27H796.308V488.386H801.238C802.099 488.386 802.7 488.545 803.04 488.862C803.38 489.157 803.607 489.701 803.72 490.494L804.23 494.438ZM836.115 487.842C838.699 487.842 841.045 488.261 843.153 489.1C845.284 489.939 847.097 491.129 848.593 492.67C850.112 494.211 851.279 496.093 852.095 498.314C852.911 500.535 853.319 503.017 853.319 505.76C853.319 508.525 852.911 511.019 852.095 513.24C851.279 515.461 850.112 517.354 848.593 518.918C847.097 520.482 845.284 521.683 843.153 522.522C841.045 523.361 838.699 523.78 836.115 523.78C833.509 523.78 831.14 523.361 829.009 522.522C826.879 521.683 825.054 520.482 823.535 518.918C822.039 517.354 820.872 515.461 820.033 513.24C819.217 511.019 818.809 508.525 818.809 505.76C818.809 503.017 819.217 500.535 820.033 498.314C820.872 496.093 822.039 494.211 823.535 492.67C825.054 491.129 826.879 489.939 829.009 489.1C831.14 488.261 833.509 487.842 836.115 487.842ZM836.115 517.32C839.017 517.32 841.159 516.345 842.541 514.396C843.947 512.447 844.649 509.591 844.649 505.828C844.649 502.065 843.947 499.198 842.541 497.226C841.159 495.254 839.017 494.268 836.115 494.268C833.169 494.268 830.981 495.265 829.553 497.26C828.148 499.232 827.445 502.088 827.445 505.828C827.445 509.568 828.148 512.424 829.553 514.396C830.981 516.345 833.169 517.32 836.115 517.32ZM868.124 514.226C869.076 515.382 870.107 516.198 871.218 516.674C872.351 517.15 873.575 517.388 874.89 517.388C876.159 517.388 877.304 517.15 878.324 516.674C879.344 516.198 880.205 515.473 880.908 514.498C881.633 513.523 882.189 512.299 882.574 510.826C882.959 509.33 883.152 507.573 883.152 505.556C883.152 503.516 882.982 501.793 882.642 500.388C882.325 498.96 881.86 497.804 881.248 496.92C880.636 496.036 879.888 495.39 879.004 494.982C878.143 494.574 877.157 494.37 876.046 494.37C874.301 494.37 872.816 494.744 871.592 495.492C870.368 496.217 869.212 497.249 868.124 498.586V514.226ZM867.682 493.146C869.11 491.537 870.731 490.233 872.544 489.236C874.357 488.239 876.488 487.74 878.936 487.74C880.84 487.74 882.574 488.137 884.138 488.93C885.725 489.723 887.085 490.879 888.218 492.398C889.374 493.894 890.258 495.753 890.87 497.974C891.505 500.173 891.822 502.7 891.822 505.556C891.822 508.163 891.471 510.577 890.768 512.798C890.065 515.019 889.057 516.946 887.742 518.578C886.45 520.21 884.875 521.491 883.016 522.42C881.18 523.327 879.117 523.78 876.828 523.78C874.879 523.78 873.213 523.485 871.83 522.896C870.447 522.284 869.212 521.445 868.124 520.38V534.66H859.726V488.386H864.86C865.948 488.386 866.662 488.896 867.002 489.916L867.682 493.146ZM920.849 501.816C920.849 500.728 920.69 499.708 920.373 498.756C920.078 497.781 919.625 496.931 919.013 496.206C918.401 495.481 917.619 494.914 916.667 494.506C915.737 494.075 914.649 493.86 913.403 493.86C910.977 493.86 909.062 494.551 907.657 495.934C906.274 497.317 905.39 499.277 905.005 501.816H920.849ZM904.835 506.882C904.971 508.673 905.288 510.225 905.787 511.54C906.285 512.832 906.943 513.909 907.759 514.77C908.575 515.609 909.538 516.243 910.649 516.674C911.782 517.082 913.029 517.286 914.389 517.286C915.749 517.286 916.916 517.127 917.891 516.81C918.888 516.493 919.749 516.141 920.475 515.756C921.223 515.371 921.869 515.019 922.413 514.702C922.979 514.385 923.523 514.226 924.045 514.226C924.747 514.226 925.269 514.487 925.609 515.008L928.023 518.068C927.093 519.156 926.051 520.074 924.895 520.822C923.739 521.547 922.526 522.137 921.257 522.59C920.01 523.021 918.729 523.327 917.415 523.508C916.123 523.689 914.865 523.78 913.641 523.78C911.215 523.78 908.96 523.383 906.875 522.59C904.789 521.774 902.976 520.584 901.435 519.02C899.893 517.433 898.681 515.484 897.797 513.172C896.913 510.837 896.471 508.14 896.471 505.08C896.471 502.7 896.856 500.467 897.627 498.382C898.397 496.274 899.497 494.449 900.925 492.908C902.375 491.344 904.132 490.109 906.195 489.202C908.28 488.295 910.626 487.842 913.233 487.842C915.431 487.842 917.46 488.193 919.319 488.896C921.177 489.599 922.775 490.63 924.113 491.99C925.45 493.327 926.493 494.982 927.241 496.954C928.011 498.903 928.397 501.136 928.397 503.652C928.397 504.921 928.261 505.783 927.989 506.236C927.717 506.667 927.195 506.882 926.425 506.882H904.835ZM956.595 497.294C955.643 496.138 954.6 495.322 953.467 494.846C952.356 494.37 951.155 494.132 949.863 494.132C948.593 494.132 947.449 494.37 946.429 494.846C945.409 495.322 944.536 496.047 943.811 497.022C943.085 497.974 942.53 499.198 942.145 500.694C941.759 502.167 941.567 503.913 941.567 505.93C941.567 507.97 941.725 509.704 942.043 511.132C942.383 512.537 942.859 513.693 943.471 514.6C944.083 515.484 944.831 516.13 945.715 516.538C946.599 516.923 947.585 517.116 948.673 517.116C950.418 517.116 951.903 516.753 953.127 516.028C954.351 515.303 955.507 514.271 956.595 512.934V497.294ZM964.993 472.746V523.27H959.859C958.748 523.27 958.045 522.76 957.751 521.74L957.037 518.374C955.631 519.983 954.011 521.287 952.175 522.284C950.361 523.281 948.242 523.78 945.817 523.78C943.913 523.78 942.167 523.383 940.581 522.59C938.994 521.797 937.623 520.652 936.467 519.156C935.333 517.637 934.449 515.767 933.815 513.546C933.203 511.325 932.897 508.786 932.897 505.93C932.897 503.346 933.248 500.943 933.951 498.722C934.653 496.501 935.662 494.574 936.977 492.942C938.291 491.31 939.867 490.041 941.703 489.134C943.539 488.205 945.601 487.74 947.891 487.74C949.84 487.74 951.506 488.046 952.889 488.658C954.271 489.27 955.507 490.097 956.595 491.14V472.746H964.993ZM981.985 488.386V523.27H973.553V488.386H981.985ZM983.141 478.22C983.141 478.945 982.993 479.625 982.699 480.26C982.404 480.895 982.007 481.45 981.509 481.926C981.033 482.402 980.466 482.787 979.809 483.082C979.151 483.354 978.449 483.49 977.701 483.49C976.975 483.49 976.284 483.354 975.627 483.082C974.992 482.787 974.437 482.402 973.961 481.926C973.485 481.45 973.099 480.895 972.805 480.26C972.533 479.625 972.397 478.945 972.397 478.22C972.397 477.472 972.533 476.769 972.805 476.112C973.099 475.455 973.485 474.888 973.961 474.412C974.437 473.936 974.992 473.562 975.627 473.29C976.284 472.995 976.975 472.848 977.701 472.848C978.449 472.848 979.151 472.995 979.809 473.29C980.466 473.562 981.033 473.936 981.509 474.412C982.007 474.888 982.404 475.455 982.699 476.112C982.993 476.769 983.141 477.472 983.141 478.22ZM1008.97 508.378C1006.55 508.491 1004.51 508.707 1002.85 509.024C1001.2 509.319 999.874 509.704 998.876 510.18C997.879 510.656 997.165 511.211 996.734 511.846C996.304 512.481 996.088 513.172 996.088 513.92C996.088 515.393 996.519 516.447 997.38 517.082C998.264 517.717 999.409 518.034 1000.81 518.034C1002.54 518.034 1004.02 517.728 1005.27 517.116C1006.54 516.481 1007.77 515.529 1008.97 514.26V508.378ZM989.73 493.248C993.742 489.576 998.57 487.74 1004.21 487.74C1006.25 487.74 1008.08 488.08 1009.69 488.76C1011.3 489.417 1012.66 490.347 1013.77 491.548C1014.88 492.727 1015.72 494.143 1016.28 495.798C1016.87 497.453 1017.17 499.266 1017.17 501.238V523.27H1013.36C1012.57 523.27 1011.96 523.157 1011.52 522.93C1011.09 522.681 1010.75 522.193 1010.5 521.468L1009.76 518.952C1008.87 519.745 1008.01 520.448 1007.17 521.06C1006.33 521.649 1005.46 522.148 1004.55 522.556C1003.65 522.964 1002.67 523.27 1001.63 523.474C1000.61 523.701 999.477 523.814 998.23 523.814C996.757 523.814 995.397 523.621 994.15 523.236C992.904 522.828 991.827 522.227 990.92 521.434C990.014 520.641 989.311 519.655 988.812 518.476C988.314 517.297 988.064 515.926 988.064 514.362C988.064 513.478 988.212 512.605 988.506 511.744C988.801 510.86 989.277 510.021 989.934 509.228C990.614 508.435 991.487 507.687 992.552 506.984C993.618 506.281 994.921 505.669 996.462 505.148C998.026 504.627 999.84 504.207 1001.9 503.89C1003.97 503.55 1006.32 503.346 1008.97 503.278V501.238C1008.97 498.903 1008.48 497.181 1007.48 496.07C1006.48 494.937 1005.04 494.37 1003.16 494.37C1001.8 494.37 1000.67 494.529 999.76 494.846C998.876 495.163 998.094 495.526 997.414 495.934C996.734 496.319 996.111 496.671 995.544 496.988C995 497.305 994.388 497.464 993.708 497.464C993.119 497.464 992.62 497.317 992.212 497.022C991.804 496.705 991.476 496.342 991.226 495.934L989.73 493.248ZM1036.24 523.814C1033.2 523.814 1030.87 522.964 1029.24 521.264C1027.63 519.541 1026.82 517.173 1026.82 514.158V494.676H1023.25C1022.8 494.676 1022.41 494.529 1022.1 494.234C1021.78 493.939 1021.62 493.497 1021.62 492.908V489.576L1027.23 488.658L1029 479.138C1029.11 478.685 1029.33 478.333 1029.64 478.084C1029.96 477.835 1030.37 477.71 1030.87 477.71H1035.22V488.692H1044.54V494.676H1035.22V513.58C1035.22 514.668 1035.48 515.518 1036 516.13C1036.55 516.742 1037.28 517.048 1038.21 517.048C1038.73 517.048 1039.16 516.991 1039.5 516.878C1039.87 516.742 1040.17 516.606 1040.42 516.47C1040.69 516.334 1040.93 516.209 1041.14 516.096C1041.34 515.96 1041.54 515.892 1041.75 515.892C1042 515.892 1042.2 515.96 1042.36 516.096C1042.52 516.209 1042.69 516.391 1042.87 516.64L1045.39 520.72C1044.16 521.74 1042.76 522.511 1041.17 523.032C1039.58 523.553 1037.94 523.814 1036.24 523.814ZM1057.84 494.438C1058.92 492.353 1060.22 490.721 1061.71 489.542C1063.21 488.341 1064.98 487.74 1067.02 487.74C1068.62 487.74 1069.92 488.091 1070.89 488.794L1070.35 495.084C1070.23 495.492 1070.06 495.787 1069.84 495.968C1069.63 496.127 1069.35 496.206 1068.99 496.206C1068.65 496.206 1068.14 496.149 1067.46 496.036C1066.8 495.923 1066.15 495.866 1065.52 495.866C1064.59 495.866 1063.76 496.002 1063.04 496.274C1062.31 496.546 1061.65 496.943 1061.07 497.464C1060.5 497.963 1059.99 498.575 1059.54 499.3C1059.1 500.025 1058.7 500.853 1058.31 501.782V523.27H1049.91V488.386H1054.84C1055.7 488.386 1056.31 488.545 1056.65 488.862C1056.99 489.157 1057.21 489.701 1057.33 490.494L1057.84 494.438ZM1083.98 488.386V523.27H1075.55V488.386H1083.98ZM1085.14 478.22C1085.14 478.945 1084.99 479.625 1084.7 480.26C1084.4 480.895 1084.01 481.45 1083.51 481.926C1083.03 482.402 1082.47 482.787 1081.81 483.082C1081.15 483.354 1080.45 483.49 1079.7 483.49C1078.98 483.49 1078.28 483.354 1077.63 483.082C1076.99 482.787 1076.44 482.402 1075.96 481.926C1075.48 481.45 1075.1 480.895 1074.8 480.26C1074.53 479.625 1074.4 478.945 1074.4 478.22C1074.4 477.472 1074.53 476.769 1074.8 476.112C1075.1 475.455 1075.48 474.888 1075.96 474.412C1076.44 473.936 1076.99 473.562 1077.63 473.29C1078.28 472.995 1078.98 472.848 1079.7 472.848C1080.45 472.848 1081.15 472.995 1081.81 473.29C1082.47 473.562 1083.03 473.936 1083.51 474.412C1084.01 474.888 1084.4 475.455 1084.7 476.112C1084.99 476.769 1085.14 477.472 1085.14 478.22ZM1110.97 508.378C1108.55 508.491 1106.51 508.707 1104.85 509.024C1103.2 509.319 1101.87 509.704 1100.88 510.18C1099.88 510.656 1099.17 511.211 1098.73 511.846C1098.3 512.481 1098.09 513.172 1098.09 513.92C1098.09 515.393 1098.52 516.447 1099.38 517.082C1100.26 517.717 1101.41 518.034 1102.81 518.034C1104.54 518.034 1106.02 517.728 1107.27 517.116C1108.54 516.481 1109.77 515.529 1110.97 514.26V508.378ZM1091.73 493.248C1095.74 489.576 1100.57 487.74 1106.21 487.74C1108.25 487.74 1110.08 488.08 1111.69 488.76C1113.3 489.417 1114.66 490.347 1115.77 491.548C1116.88 492.727 1117.72 494.143 1118.28 495.798C1118.87 497.453 1119.17 499.266 1119.17 501.238V523.27H1115.36C1114.57 523.27 1113.96 523.157 1113.52 522.93C1113.09 522.681 1112.75 522.193 1112.5 521.468L1111.76 518.952C1110.87 519.745 1110.01 520.448 1109.17 521.06C1108.33 521.649 1107.46 522.148 1106.55 522.556C1105.65 522.964 1104.67 523.27 1103.63 523.474C1102.61 523.701 1101.48 523.814 1100.23 523.814C1098.76 523.814 1097.4 523.621 1096.15 523.236C1094.9 522.828 1093.83 522.227 1092.92 521.434C1092.01 520.641 1091.31 519.655 1090.81 518.476C1090.31 517.297 1090.06 515.926 1090.06 514.362C1090.06 513.478 1090.21 512.605 1090.51 511.744C1090.8 510.86 1091.28 510.021 1091.93 509.228C1092.61 508.435 1093.49 507.687 1094.55 506.984C1095.62 506.281 1096.92 505.669 1098.46 505.148C1100.03 504.627 1101.84 504.207 1103.9 503.89C1105.97 503.55 1108.32 503.346 1110.97 503.278V501.238C1110.97 498.903 1110.48 497.181 1109.48 496.07C1108.48 494.937 1107.04 494.37 1105.16 494.37C1103.8 494.37 1102.67 494.529 1101.76 494.846C1100.88 495.163 1100.09 495.526 1099.41 495.934C1098.73 496.319 1098.11 496.671 1097.54 496.988C1097 497.305 1096.39 497.464 1095.71 497.464C1095.12 497.464 1094.62 497.317 1094.21 497.022C1093.8 496.705 1093.48 496.342 1093.23 495.934L1091.73 493.248ZM1143.34 499.232H1160.95V506.236H1143.34V499.232ZM1228.29 474.106V523.27H1223.6C1222.87 523.27 1222.26 523.157 1221.76 522.93C1221.28 522.681 1220.82 522.273 1220.37 521.706L1194.7 488.93C1194.83 490.426 1194.9 491.809 1194.9 493.078V523.27H1186.84V474.106H1191.64C1192.02 474.106 1192.35 474.129 1192.62 474.174C1192.92 474.197 1193.17 474.265 1193.37 474.378C1193.6 474.469 1193.81 474.616 1194.02 474.82C1194.22 475.001 1194.45 475.251 1194.7 475.568L1220.47 508.48C1220.4 507.687 1220.34 506.905 1220.3 506.134C1220.25 505.363 1220.23 504.649 1220.23 503.992V474.106H1228.29ZM1259.32 501.816C1259.32 500.728 1259.16 499.708 1258.85 498.756C1258.55 497.781 1258.1 496.931 1257.49 496.206C1256.87 495.481 1256.09 494.914 1255.14 494.506C1254.21 494.075 1253.12 493.86 1251.88 493.86C1249.45 493.86 1247.53 494.551 1246.13 495.934C1244.75 497.317 1243.86 499.277 1243.48 501.816H1259.32ZM1243.31 506.882C1243.44 508.673 1243.76 510.225 1244.26 511.54C1244.76 512.832 1245.42 513.909 1246.23 514.77C1247.05 515.609 1248.01 516.243 1249.12 516.674C1250.25 517.082 1251.5 517.286 1252.86 517.286C1254.22 517.286 1255.39 517.127 1256.36 516.81C1257.36 516.493 1258.22 516.141 1258.95 515.756C1259.7 515.371 1260.34 515.019 1260.89 514.702C1261.45 514.385 1262 514.226 1262.52 514.226C1263.22 514.226 1263.74 514.487 1264.08 515.008L1266.5 518.068C1265.57 519.156 1264.52 520.074 1263.37 520.822C1262.21 521.547 1261 522.137 1259.73 522.59C1258.48 523.021 1257.2 523.327 1255.89 523.508C1254.6 523.689 1253.34 523.78 1252.11 523.78C1249.69 523.78 1247.43 523.383 1245.35 522.59C1243.26 521.774 1241.45 520.584 1239.91 519.02C1238.37 517.433 1237.15 515.484 1236.27 513.172C1235.39 510.837 1234.94 508.14 1234.94 505.08C1234.94 502.7 1235.33 500.467 1236.1 498.382C1236.87 496.274 1237.97 494.449 1239.4 492.908C1240.85 491.344 1242.6 490.109 1244.67 489.202C1246.75 488.295 1249.1 487.842 1251.71 487.842C1253.9 487.842 1255.93 488.193 1257.79 488.896C1259.65 489.599 1261.25 490.63 1262.59 491.99C1263.92 493.327 1264.97 494.982 1265.71 496.954C1266.48 498.903 1266.87 501.136 1266.87 503.652C1266.87 504.921 1266.73 505.783 1266.46 506.236C1266.19 506.667 1265.67 506.882 1264.9 506.882H1243.31ZM1303.23 488.386V523.27H1298.09C1296.98 523.27 1296.28 522.76 1295.99 521.74L1295.41 518.952C1293.98 520.403 1292.4 521.581 1290.68 522.488C1288.96 523.372 1286.93 523.814 1284.6 523.814C1282.69 523.814 1281 523.497 1279.53 522.862C1278.08 522.205 1276.85 521.287 1275.86 520.108C1274.86 518.929 1274.1 517.535 1273.58 515.926C1273.08 514.294 1272.83 512.503 1272.83 510.554V488.386H1281.23V510.554C1281.23 512.685 1281.72 514.339 1282.69 515.518C1283.69 516.674 1285.17 517.252 1287.15 517.252C1288.6 517.252 1289.96 516.935 1291.23 516.3C1292.49 515.643 1293.7 514.747 1294.83 513.614V488.386H1303.23ZM1319.48 494.438C1320.56 492.353 1321.86 490.721 1323.35 489.542C1324.85 488.341 1326.62 487.74 1328.66 487.74C1330.27 487.74 1331.56 488.091 1332.53 488.794L1331.99 495.084C1331.87 495.492 1331.7 495.787 1331.48 495.968C1331.27 496.127 1330.99 496.206 1330.63 496.206C1330.29 496.206 1329.78 496.149 1329.1 496.036C1328.44 495.923 1327.79 495.866 1327.16 495.866C1326.23 495.866 1325.4 496.002 1324.68 496.274C1323.95 496.546 1323.3 496.943 1322.71 497.464C1322.14 497.963 1321.63 498.575 1321.18 499.3C1320.75 500.025 1320.34 500.853 1319.95 501.782V523.27H1311.55V488.386H1316.48C1317.35 488.386 1317.95 488.545 1318.29 488.862C1318.63 489.157 1318.85 489.701 1318.97 490.494L1319.48 494.438ZM1351.36 487.842C1353.95 487.842 1356.29 488.261 1358.4 489.1C1360.53 489.939 1362.34 491.129 1363.84 492.67C1365.36 494.211 1366.53 496.093 1367.34 498.314C1368.16 500.535 1368.57 503.017 1368.57 505.76C1368.57 508.525 1368.16 511.019 1367.34 513.24C1366.53 515.461 1365.36 517.354 1363.84 518.918C1362.34 520.482 1360.53 521.683 1358.4 522.522C1356.29 523.361 1353.95 523.78 1351.36 523.78C1348.75 523.78 1346.39 523.361 1344.26 522.522C1342.12 521.683 1340.3 520.482 1338.78 518.918C1337.29 517.354 1336.12 515.461 1335.28 513.24C1334.46 511.019 1334.06 508.525 1334.06 505.76C1334.06 503.017 1334.46 500.535 1335.28 498.314C1336.12 496.093 1337.29 494.211 1338.78 492.67C1340.3 491.129 1342.12 489.939 1344.26 489.1C1346.39 488.261 1348.75 487.842 1351.36 487.842ZM1351.36 517.32C1354.26 517.32 1356.4 516.345 1357.79 514.396C1359.19 512.447 1359.9 509.591 1359.9 505.828C1359.9 502.065 1359.19 499.198 1357.79 497.226C1356.4 495.254 1354.26 494.268 1351.36 494.268C1348.41 494.268 1346.23 495.265 1344.8 497.26C1343.39 499.232 1342.69 502.088 1342.69 505.828C1342.69 509.568 1343.39 512.424 1344.8 514.396C1346.23 516.345 1348.41 517.32 1351.36 517.32ZM1383.47 472.746V523.27H1375.07V472.746H1383.47ZM1407.28 487.842C1409.86 487.842 1412.21 488.261 1414.31 489.1C1416.44 489.939 1418.26 491.129 1419.75 492.67C1421.27 494.211 1422.44 496.093 1423.26 498.314C1424.07 500.535 1424.48 503.017 1424.48 505.76C1424.48 508.525 1424.07 511.019 1423.26 513.24C1422.44 515.461 1421.27 517.354 1419.75 518.918C1418.26 520.482 1416.44 521.683 1414.31 522.522C1412.21 523.361 1409.86 523.78 1407.28 523.78C1404.67 523.78 1402.3 523.361 1400.17 522.522C1398.04 521.683 1396.21 520.482 1394.7 518.918C1393.2 517.354 1392.03 515.461 1391.19 513.24C1390.38 511.019 1389.97 508.525 1389.97 505.76C1389.97 503.017 1390.38 500.535 1391.19 498.314C1392.03 496.093 1393.2 494.211 1394.7 492.67C1396.21 491.129 1398.04 489.939 1400.17 489.1C1402.3 488.261 1404.67 487.842 1407.28 487.842ZM1407.28 517.32C1410.18 517.32 1412.32 516.345 1413.7 514.396C1415.11 512.447 1415.81 509.591 1415.81 505.828C1415.81 502.065 1415.11 499.198 1413.7 497.226C1412.32 495.254 1410.18 494.268 1407.28 494.268C1404.33 494.268 1402.14 495.265 1400.71 497.26C1399.31 499.232 1398.61 502.088 1398.61 505.828C1398.61 509.568 1399.31 512.424 1400.71 514.396C1402.14 516.345 1404.33 517.32 1407.28 517.32ZM1443.37 504.978C1444.41 504.978 1445.32 504.842 1446.09 504.57C1446.86 504.275 1447.5 503.879 1447.99 503.38C1448.52 502.881 1448.9 502.281 1449.15 501.578C1449.42 500.875 1449.56 500.105 1449.56 499.266C1449.56 497.543 1449.04 496.183 1447.99 495.186C1446.97 494.166 1445.43 493.656 1443.37 493.656C1441.31 493.656 1439.76 494.166 1438.71 495.186C1437.69 496.183 1437.18 497.543 1437.18 499.266C1437.18 500.082 1437.31 500.841 1437.56 501.544C1437.83 502.247 1438.21 502.859 1438.71 503.38C1439.23 503.879 1439.88 504.275 1440.65 504.57C1441.44 504.842 1442.35 504.978 1443.37 504.978ZM1452.86 524.834C1452.86 524.154 1452.65 523.599 1452.24 523.168C1451.84 522.737 1451.28 522.409 1450.58 522.182C1449.88 521.933 1449.05 521.751 1448.1 521.638C1447.17 521.525 1446.17 521.445 1445.1 521.4C1444.06 521.332 1442.97 521.275 1441.84 521.23C1440.73 521.185 1439.64 521.094 1438.58 520.958C1437.65 521.479 1436.89 522.091 1436.3 522.794C1435.73 523.497 1435.45 524.313 1435.45 525.242C1435.45 525.854 1435.6 526.421 1435.89 526.942C1436.21 527.486 1436.7 527.951 1437.35 528.336C1438.03 528.721 1438.91 529.016 1439.97 529.22C1441.04 529.447 1442.34 529.56 1443.88 529.56C1445.44 529.56 1446.79 529.435 1447.93 529.186C1449.06 528.959 1449.99 528.631 1450.71 528.2C1451.46 527.792 1452.01 527.293 1452.35 526.704C1452.69 526.137 1452.86 525.514 1452.86 524.834ZM1461.22 489.576V492.704C1461.22 493.701 1460.62 494.313 1459.42 494.54L1456.29 495.118C1456.77 496.319 1457 497.634 1457 499.062C1457 500.785 1456.65 502.349 1455.95 503.754C1455.27 505.137 1454.32 506.315 1453.09 507.29C1451.87 508.265 1450.42 509.024 1448.74 509.568C1447.09 510.089 1445.3 510.35 1443.37 510.35C1442.69 510.35 1442.03 510.316 1441.4 510.248C1440.76 510.18 1440.14 510.089 1439.53 509.976C1438.44 510.633 1437.9 511.37 1437.9 512.186C1437.9 512.889 1438.21 513.41 1438.85 513.75C1439.51 514.067 1440.37 514.294 1441.43 514.43C1442.5 514.566 1443.71 514.657 1445.07 514.702C1446.43 514.725 1447.82 514.793 1449.25 514.906C1450.68 515.019 1452.07 515.223 1453.43 515.518C1454.79 515.79 1456.01 516.232 1457.07 516.844C1458.14 517.456 1458.99 518.295 1459.62 519.36C1460.28 520.403 1460.61 521.751 1460.61 523.406C1460.61 524.947 1460.22 526.443 1459.45 527.894C1458.7 529.345 1457.61 530.637 1456.15 531.77C1454.73 532.903 1452.96 533.81 1450.85 534.49C1448.77 535.193 1446.39 535.544 1443.71 535.544C1441.08 535.544 1438.79 535.283 1436.84 534.762C1434.89 534.263 1433.27 533.583 1431.98 532.722C1430.69 531.883 1429.73 530.909 1429.09 529.798C1428.46 528.687 1428.14 527.531 1428.14 526.33C1428.14 524.698 1428.63 523.338 1429.6 522.25C1430.6 521.139 1431.96 520.255 1433.68 519.598C1432.75 519.122 1432.01 518.487 1431.47 517.694C1430.93 516.901 1430.65 515.858 1430.65 514.566C1430.65 514.045 1430.75 513.512 1430.93 512.968C1431.13 512.401 1431.41 511.846 1431.78 511.302C1432.16 510.758 1432.64 510.248 1433.2 509.772C1433.77 509.273 1434.44 508.831 1435.21 508.446C1433.44 507.494 1432.05 506.225 1431.03 504.638C1430.03 503.051 1429.53 501.193 1429.53 499.062C1429.53 497.339 1429.87 495.787 1430.55 494.404C1431.26 492.999 1432.22 491.809 1433.44 490.834C1434.69 489.837 1436.15 489.077 1437.83 488.556C1439.53 488.035 1441.38 487.774 1443.37 487.774C1444.87 487.774 1446.27 487.933 1447.59 488.25C1448.9 488.545 1450.1 488.987 1451.19 489.576H1461.22ZM1475.25 488.386V523.27H1466.82V488.386H1475.25ZM1476.41 478.22C1476.41 478.945 1476.26 479.625 1475.96 480.26C1475.67 480.895 1475.27 481.45 1474.77 481.926C1474.3 482.402 1473.73 482.787 1473.07 483.082C1472.42 483.354 1471.71 483.49 1470.97 483.49C1470.24 483.49 1469.55 483.354 1468.89 483.082C1468.26 482.787 1467.7 482.402 1467.23 481.926C1466.75 481.45 1466.37 480.895 1466.07 480.26C1465.8 479.625 1465.66 478.945 1465.66 478.22C1465.66 477.472 1465.8 476.769 1466.07 476.112C1466.37 475.455 1466.75 474.888 1467.23 474.412C1467.7 473.936 1468.26 473.562 1468.89 473.29C1469.55 472.995 1470.24 472.848 1470.97 472.848C1471.71 472.848 1472.42 472.995 1473.07 473.29C1473.73 473.562 1474.3 473.936 1474.77 474.412C1475.27 474.888 1475.67 475.455 1475.96 476.112C1476.26 476.769 1476.41 477.472 1476.41 478.22ZM1502.24 508.378C1499.81 508.491 1497.77 508.707 1496.12 509.024C1494.47 509.319 1493.14 509.704 1492.14 510.18C1491.14 510.656 1490.43 511.211 1490 511.846C1489.57 512.481 1489.35 513.172 1489.35 513.92C1489.35 515.393 1489.78 516.447 1490.65 517.082C1491.53 517.717 1492.67 518.034 1494.08 518.034C1495.8 518.034 1497.29 517.728 1498.53 517.116C1499.8 516.481 1501.04 515.529 1502.24 514.26V508.378ZM1483 493.248C1487.01 489.576 1491.84 487.74 1497.48 487.74C1499.52 487.74 1501.34 488.08 1502.95 488.76C1504.56 489.417 1505.92 490.347 1507.03 491.548C1508.14 492.727 1508.98 494.143 1509.55 495.798C1510.14 497.453 1510.43 499.266 1510.43 501.238V523.27H1506.63C1505.83 523.27 1505.22 523.157 1504.79 522.93C1504.36 522.681 1504.02 522.193 1503.77 521.468L1503.02 518.952C1502.14 519.745 1501.28 520.448 1500.44 521.06C1499.6 521.649 1498.73 522.148 1497.82 522.556C1496.91 522.964 1495.94 523.27 1494.9 523.474C1493.88 523.701 1492.74 523.814 1491.5 523.814C1490.02 523.814 1488.66 523.621 1487.42 523.236C1486.17 522.828 1485.09 522.227 1484.19 521.434C1483.28 520.641 1482.58 519.655 1482.08 518.476C1481.58 517.297 1481.33 515.926 1481.33 514.362C1481.33 513.478 1481.48 512.605 1481.77 511.744C1482.07 510.86 1482.54 510.021 1483.2 509.228C1483.88 508.435 1484.75 507.687 1485.82 506.984C1486.88 506.281 1488.19 505.669 1489.73 505.148C1491.29 504.627 1493.11 504.207 1495.17 503.89C1497.23 503.55 1499.59 503.346 1502.24 503.278V501.238C1502.24 498.903 1501.74 497.181 1500.74 496.07C1499.75 494.937 1498.31 494.37 1496.43 494.37C1495.07 494.37 1493.93 494.529 1493.03 494.846C1492.14 495.163 1491.36 495.526 1490.68 495.934C1490 496.319 1489.38 496.671 1488.81 496.988C1488.27 497.305 1487.65 497.464 1486.97 497.464C1486.38 497.464 1485.89 497.317 1485.48 497.022C1485.07 496.705 1484.74 496.342 1484.49 495.934L1483 493.248Z" fill="white"/>
</svg>
